<svg width="109" height="36" viewBox="0 0 109 36" fill="none" xmlns="http://www.w3.org/2000/svg">
<g filter="url(#filter0_d_60_1560)">
<path d="M84.8906 26.6943C84.6812 26.6943 84.5137 26.6231 84.388 26.4805C84.2834 26.3379 84.2519 26.1647 84.2938 25.961L87.4346 11.5389C87.4764 11.3352 87.5811 11.162 87.7486 11.0194C87.9371 10.8768 88.136 10.8056 88.3454 10.8056H90.9208C91.1301 10.8056 91.2872 10.8768 91.3919 11.0194C91.4966 11.162 91.528 11.3352 91.4861 11.5389L91.2034 12.7917C91.8734 12.1398 92.6586 11.6 93.559 11.1722C94.4802 10.7241 95.5167 10.5 96.6683 10.5C98.0921 10.5 99.2332 10.7852 100.092 11.3556C100.95 11.9055 101.515 12.6898 101.788 13.7083C102.081 14.7268 102.07 15.949 101.756 17.375L99.8718 25.961C99.83 26.1647 99.7253 26.3379 99.5578 26.4805C99.3903 26.6231 99.1913 26.6943 98.961 26.6943H96.1972C95.9878 26.6943 95.8203 26.6231 95.6947 26.4805C95.59 26.3379 95.5586 26.1647 95.6004 25.961L97.4221 17.5583C97.6943 16.3157 97.6629 15.3787 97.3278 14.7472C97.0138 14.0953 96.2495 13.7694 95.0351 13.7694C93.8416 13.7694 92.8261 14.1055 91.9886 14.7778C91.172 15.45 90.6276 16.3768 90.3554 17.5583L88.5338 25.961C88.4919 26.1647 88.3872 26.3379 88.2197 26.4805C88.0522 26.6231 87.8638 26.6943 87.6544 26.6943H84.8906Z" fill="url(#paint0_linear_60_1560)"/>
<path d="M74.155 26.9999C72.5637 26.9999 71.2342 26.7147 70.1663 26.1444C69.1194 25.574 68.3656 24.7694 67.905 23.7305C67.4653 22.6916 67.3606 21.4796 67.5909 20.0944C67.6537 19.7277 67.7375 19.2796 67.8422 18.75C67.9678 18.2203 68.083 17.7722 68.1877 17.4055C68.5645 16 69.1403 14.7879 69.9151 13.7694C70.7107 12.7305 71.7157 11.9259 72.9302 11.3556C74.1655 10.7852 75.6207 10.5 77.2958 10.5C78.8871 10.5 80.2062 10.7852 81.2531 11.3556C82.3209 11.9259 83.0852 12.7305 83.5458 13.7694C84.0065 14.7879 84.1216 16 83.8913 17.4055C83.8075 17.7722 83.7133 18.2203 83.6086 18.75C83.5039 19.2796 83.3992 19.7277 83.2946 20.0944C82.9177 21.4796 82.3419 22.6916 81.5672 23.7305C80.8134 24.7694 79.8188 25.574 78.5835 26.1444C77.3691 26.7147 75.8929 26.9999 74.155 26.9999ZM74.4691 23.9749C75.5998 23.9749 76.5525 23.6388 77.3272 22.9666C78.1228 22.274 78.6986 21.2657 79.0546 19.9416C79.1383 19.6361 79.2325 19.2388 79.3372 18.75C79.4419 18.2611 79.5257 17.8638 79.5885 17.5583C79.8188 16.2546 79.7246 15.2565 79.3058 14.5639C78.8871 13.8713 78.1124 13.525 76.9817 13.525C75.872 13.525 74.9193 13.8713 74.1236 14.5639C73.328 15.2565 72.7627 16.2546 72.4276 17.5583C72.3439 17.8638 72.2392 18.2611 72.1136 18.75C72.0089 19.2388 71.9356 19.6361 71.8937 19.9416C71.6634 21.2657 71.7472 22.274 72.145 22.9666C72.5637 23.6388 73.3385 23.9749 74.4691 23.9749Z" fill="url(#paint1_linear_60_1560)"/>
<path d="M57.0279 26.9999C55.6251 26.9999 54.3897 26.7249 53.3219 26.1749C52.275 25.6249 51.5002 24.8305 50.9977 23.7916C50.4952 22.7323 50.38 21.4592 50.6522 19.9722C50.7151 19.6666 50.7988 19.2694 50.9035 18.7805C51.0082 18.2712 51.1024 17.8537 51.1862 17.5277C51.7515 15.3074 52.7984 13.5861 54.3269 12.3639C55.8554 11.1213 57.8026 10.5 60.1686 10.5C61.4877 10.5 62.587 10.6833 63.4664 11.05C64.3667 11.4167 65.0682 11.8852 65.5707 12.4555C66.0941 13.0259 66.4501 13.6166 66.6385 14.2278C66.8479 14.8389 66.9212 15.3889 66.8584 15.8777C66.8375 16.1018 66.7432 16.2852 66.5757 16.4277C66.4292 16.55 66.2512 16.6111 66.0418 16.6111H63.1837C62.9744 16.6111 62.8069 16.5601 62.6812 16.4583C62.5765 16.3564 62.5137 16.2037 62.4928 16C62.4928 15.1852 62.2625 14.5944 61.8018 14.2278C61.3621 13.8611 60.7235 13.6778 59.886 13.6778C58.86 13.6778 57.9387 14.0037 57.1221 14.6555C56.3265 15.287 55.7507 16.2953 55.3947 17.6805C55.311 18.0472 55.2272 18.424 55.1435 18.8111C55.0597 19.1981 54.9864 19.5342 54.9236 19.8194C54.6933 21.2249 54.798 22.2434 55.2377 22.8749C55.6774 23.5064 56.4102 23.8221 57.4362 23.8221C58.2528 23.8221 58.9856 23.6592 59.6347 23.3333C60.2838 22.987 60.8282 22.4064 61.2679 21.5916C61.3935 21.3675 61.5192 21.2148 61.6448 21.1333C61.7914 21.0314 61.9693 20.9805 62.1787 20.9805H65.0054C65.2147 20.9805 65.3718 21.0518 65.4765 21.1944C65.6021 21.3166 65.6335 21.4897 65.5707 21.7138C65.4241 22.162 65.1519 22.6916 64.7541 23.3027C64.3772 23.8934 63.8538 24.474 63.1837 25.0444C62.5137 25.6147 61.6657 26.0832 60.6398 26.4499C59.6347 26.8166 58.4308 26.9999 57.0279 26.9999Z" fill="url(#paint2_linear_60_1560)"/>
<path d="M43.2514 26.6943C43.042 26.6943 42.8745 26.623 42.7489 26.4804C42.6442 26.3378 42.6128 26.1647 42.6547 25.961L47.0831 5.73333C47.125 5.52963 47.2297 5.35648 47.3972 5.21389C47.5647 5.0713 47.7531 5 47.9625 5H50.5693C50.7996 5 50.9671 5.0713 51.0718 5.21389C51.1974 5.35648 51.2393 5.52963 51.1974 5.73333L46.769 25.961C46.7271 26.1647 46.6224 26.3378 46.4549 26.4804C46.2874 26.623 46.0885 26.6943 45.8582 26.6943H43.2514Z" fill="url(#paint3_linear_60_1560)"/>
<path d="M31.1457 26.9999C30.057 26.9999 29.1357 26.8268 28.3819 26.4805C27.6281 26.1138 27.0314 25.6045 26.5917 24.9527C26.1729 24.3008 25.9007 23.537 25.7751 22.661C25.6495 21.7647 25.6704 20.787 25.8379 19.7277C25.9217 19.3611 25.9949 19.0351 26.0578 18.75C26.1206 18.4444 26.1939 18.1083 26.2776 17.7416C26.5498 16.7231 26.9058 15.7759 27.3455 14.9C27.8061 14.0241 28.361 13.2602 29.01 12.6083C29.6801 11.9361 30.4548 11.4167 31.3342 11.05C32.2345 10.6833 33.2605 10.5 34.4121 10.5C35.7103 10.5 36.6944 10.7037 37.3644 11.1111C38.0553 11.4981 38.5893 11.9768 38.9661 12.5472L39.186 11.5389C39.2279 11.3352 39.3326 11.162 39.5001 11.0194C39.6676 10.8768 39.856 10.8056 40.0654 10.8056H42.5466C42.756 10.8056 42.9235 10.8768 43.0491 11.0194C43.1747 11.162 43.2166 11.3352 43.1747 11.5389L40.0026 25.961C39.9607 26.1647 39.856 26.3379 39.6885 26.4805C39.521 26.6231 39.3326 26.6943 39.1232 26.6943H36.642C36.4117 26.6943 36.2337 26.6231 36.1081 26.4805C36.0034 26.3379 35.972 26.1647 36.0139 25.961L36.2651 24.8305C35.637 25.4619 34.946 25.9814 34.1922 26.3888C33.4385 26.7962 32.423 26.9999 31.1457 26.9999ZM32.5591 23.7305C33.4385 23.7305 34.1922 23.537 34.8204 23.1499C35.4485 22.7629 35.951 22.274 36.3279 21.6833C36.7258 21.0722 37.0084 20.4509 37.1759 19.8194C37.2806 19.4527 37.3748 19.0657 37.4586 18.6583C37.5423 18.2305 37.6156 17.8333 37.6784 17.4666C37.8041 16.8555 37.8041 16.275 37.6784 15.725C37.5738 15.1546 37.312 14.6861 36.8933 14.3194C36.4745 13.9528 35.8359 13.7694 34.9774 13.7694C34.1608 13.7694 33.4594 13.9629 32.8731 14.35C32.3078 14.7166 31.8367 15.2055 31.4598 15.8166C31.0829 16.4277 30.7793 17.1 30.549 17.8333C30.4652 18.1388 30.392 18.4444 30.3292 18.75C30.2663 19.0555 30.214 19.3611 30.1721 19.6666C30.0674 20.3999 30.036 21.0722 30.0779 21.6833C30.1407 22.2944 30.3606 22.7934 30.7374 23.1805C31.1353 23.5471 31.7425 23.7305 32.5591 23.7305Z" fill="url(#paint4_linear_60_1560)"/>
<path d="M7.64074 26.4412C7.41233 26.4412 7.23583 26.3705 7.11124 26.2291C7.00742 26.0877 6.97627 25.9159 7.0178 25.7139L11.3473 5.98705C11.3888 5.76484 11.4926 5.58302 11.6587 5.44161C11.8249 5.3002 12.0221 5.22949 12.2505 5.22949H26.7107C26.9391 5.22949 27.1052 5.3002 27.209 5.44161C27.3128 5.58302 27.344 5.76484 27.3025 5.98705L26.8353 8.261C26.7937 8.48322 26.6899 8.66503 26.5238 8.80644C26.3577 8.92765 26.1604 8.98826 25.932 8.98826H16.1234C16.0012 8.98826 15.8832 9.03299 15.7918 9.11402L13.4984 11.146C13.3205 11.3036 13.2782 11.5646 13.3971 11.7704L14.7955 14.1903C14.8848 14.3449 15.0498 14.4402 15.2284 14.4402H24.032C24.2604 14.4402 24.4265 14.5109 24.5304 14.6523C24.6342 14.7937 24.6653 14.9755 24.6238 15.1977L24.1877 17.4717C24.1462 17.6737 24.032 17.8454 23.8451 17.9868C23.679 18.1282 23.4817 18.1989 23.2533 18.1989H13.8009C13.5698 18.1989 13.3688 18.3573 13.3147 18.582L11.599 25.7139C11.5575 25.9159 11.4537 26.0877 11.2876 26.2291C11.1215 26.3705 10.9242 26.4412 10.6958 26.4412H7.64074Z" fill="url(#paint5_linear_60_1560)"/>
</g>
<defs>
<filter id="filter0_d_60_1560" x="0" y="0" width="109" height="36" filterUnits="userSpaceOnUse" color-interpolation-filters="sRGB">
<feFlood flood-opacity="0" result="BackgroundImageFix"/>
<feColorMatrix in="SourceAlpha" type="matrix" values="0 0 0 0 0 0 0 0 0 0 0 0 0 0 0 0 0 0 127 0" result="hardAlpha"/>
<feOffset dy="2"/>
<feGaussianBlur stdDeviation="3.5"/>
<feComposite in2="hardAlpha" operator="out"/>
<feColorMatrix type="matrix" values="0 0 0 0 0 0 0 0 0 0.224901 0 0 0 0 0.666764 0 0 0 0.07 0"/>
<feBlend mode="normal" in2="BackgroundImageFix" result="effect1_dropShadow_60_1560"/>
<feBlend mode="normal" in="SourceGraphic" in2="effect1_dropShadow_60_1560" result="shape"/>
</filter>
<linearGradient id="paint0_linear_60_1560" x1="93.881" y1="9.16547" x2="94.1489" y2="31.7906" gradientUnits="userSpaceOnUse">
<stop stop-color="#004DFF"/>
<stop offset="0.295" stop-color="#0457FE"/>
<stop offset="0.475" stop-color="#0D70FC"/>
<stop offset="1" stop-color="#00D0FF"/>
</linearGradient>
<linearGradient id="paint1_linear_60_1560" x1="76.4325" y1="9.14029" x2="76.7307" y2="32.1917" gradientUnits="userSpaceOnUse">
<stop stop-color="#004DFF"/>
<stop offset="0.295" stop-color="#0457FE"/>
<stop offset="0.475" stop-color="#0D70FC"/>
<stop offset="1" stop-color="#00D0FF"/>
</linearGradient>
<linearGradient id="paint2_linear_60_1560" x1="59.3809" y1="9.14029" x2="59.6819" y2="32.1916" gradientUnits="userSpaceOnUse">
<stop stop-color="#004DFF"/>
<stop offset="0.295" stop-color="#0457FE"/>
<stop offset="0.475" stop-color="#0D70FC"/>
<stop offset="1" stop-color="#00D0FF"/>
</linearGradient>
<linearGradient id="paint3_linear_60_1560" x1="47.2845" y1="3.21223" x2="48.2771" y2="33.4931" gradientUnits="userSpaceOnUse">
<stop stop-color="#004DFF"/>
<stop offset="0.295" stop-color="#0457FE"/>
<stop offset="0.475" stop-color="#0D70FC"/>
<stop offset="1" stop-color="#00D0FF"/>
</linearGradient>
<linearGradient id="paint4_linear_60_1560" x1="35.1759" y1="9.14029" x2="35.4577" y2="32.1921" gradientUnits="userSpaceOnUse">
<stop stop-color="#004DFF"/>
<stop offset="0.295" stop-color="#0457FE"/>
<stop offset="0.475" stop-color="#0D70FC"/>
<stop offset="1" stop-color="#00D0FF"/>
</linearGradient>
<linearGradient id="paint5_linear_60_1560" x1="18.0121" y1="3.48149" x2="18.413" y2="33.1151" gradientUnits="userSpaceOnUse">
<stop stop-color="#004DFF"/>
<stop offset="0.295" stop-color="#0457FE"/>
<stop offset="0.475" stop-color="#0D70FC"/>
<stop offset="1" stop-color="#00D0FF"/>
</linearGradient>
</defs>
</svg>
