<svg width="216" height="51" viewBox="0 0 216 51" fill="none" xmlns="http://www.w3.org/2000/svg">
<path d="M176.54 50.2916C176.067 50.2916 175.69 50.1264 175.406 49.7958C175.17 49.4653 175.099 49.0639 175.194 48.5917L182.277 15.1586C182.372 14.6863 182.608 14.285 182.985 13.9544C183.41 13.6238 183.859 13.4586 184.331 13.4586H190.14C190.612 13.4586 190.966 13.6238 191.202 13.9544C191.438 14.285 191.509 14.6863 191.415 15.1586L190.777 18.0627C192.288 16.5516 194.059 15.3002 196.089 14.3086C198.167 13.2697 200.505 12.7502 203.102 12.7502C206.313 12.7502 208.887 13.4114 210.823 14.7336C212.759 16.0086 214.034 17.8266 214.648 20.1877C215.309 22.5488 215.285 25.3821 214.577 28.6876L210.327 48.5917C210.232 49.0639 209.996 49.4653 209.619 49.7958C209.241 50.1264 208.792 50.2916 208.273 50.2916H202.039C201.567 50.2916 201.189 50.1264 200.906 49.7958C200.67 49.4653 200.599 49.0639 200.694 48.5917L204.802 29.1126C205.416 26.2321 205.345 24.0599 204.589 22.596C203.881 21.0849 202.157 20.3294 199.419 20.3294C196.727 20.3294 194.437 21.1085 192.548 22.6668C190.706 24.2252 189.478 26.3738 188.865 29.1126L184.756 48.5917C184.662 49.0639 184.426 49.4653 184.048 49.7958C183.67 50.1264 183.245 50.2916 182.773 50.2916H176.54Z" fill="url(#paint0_linear_207_4871)"/>
<path d="M152.328 51C148.739 51 145.74 50.3389 143.332 49.0166C140.971 47.6944 139.271 45.8292 138.232 43.4209C137.24 41.0125 137.004 38.2028 137.524 34.9917C137.665 34.1418 137.854 33.1029 138.09 31.8751C138.374 30.6473 138.633 29.6085 138.87 28.7585C139.72 25.5002 141.018 22.6904 142.765 20.3294C144.56 17.921 146.826 16.0558 149.565 14.7336C152.351 13.4114 155.633 12.7502 159.411 12.7502C163 12.7502 165.975 13.4114 168.336 14.7336C170.744 16.0558 172.468 17.921 173.507 20.3294C174.546 22.6904 174.805 25.5002 174.286 28.7585C174.097 29.6085 173.885 30.6473 173.648 31.8751C173.412 33.1029 173.176 34.1418 172.94 34.9917C172.09 38.2028 170.792 41.0125 169.044 43.4209C167.344 45.8292 165.101 47.6944 162.315 49.0166C159.576 50.3389 156.247 51 152.328 51ZM153.036 43.9875C155.586 43.9875 157.735 43.2084 159.482 41.65C161.276 40.0445 162.575 37.707 163.378 34.6376C163.567 33.9293 163.779 33.0084 164.015 31.8751C164.251 30.7418 164.44 29.821 164.582 29.1126C165.101 26.0904 164.889 23.7766 163.944 22.171C163 20.5655 161.253 19.7627 158.703 19.7627C156.2 19.7627 154.051 20.5655 152.257 22.171C150.462 23.7766 149.187 26.0904 148.432 29.1126C148.243 29.821 148.007 30.7418 147.724 31.8751C147.488 33.0084 147.322 33.9293 147.228 34.6376C146.708 37.707 146.897 40.0445 147.794 41.65C148.739 43.2084 150.486 43.9875 153.036 43.9875Z" fill="url(#paint1_linear_207_4871)"/>
<path d="M113.702 51C110.538 51 107.752 50.3625 105.344 49.0875C102.983 47.8125 101.236 45.9708 100.102 43.5625C98.9689 41.107 98.7092 38.1556 99.323 34.7084C99.4647 34.0001 99.6536 33.0793 99.8897 31.9459C100.126 30.7654 100.338 29.7973 100.527 29.0418C101.802 23.8946 104.163 19.9044 107.61 17.071C111.058 14.1905 115.449 12.7502 120.785 12.7502C123.76 12.7502 126.24 13.1752 128.223 14.0252C130.253 14.8752 131.835 15.9613 132.969 17.2835C134.149 18.6058 134.952 19.9752 135.377 21.3918C135.849 22.8085 136.014 24.0835 135.873 25.2168C135.826 25.7363 135.613 26.1613 135.235 26.4918C134.905 26.7751 134.503 26.9168 134.031 26.9168H127.585C127.113 26.9168 126.735 26.7988 126.452 26.5626C126.216 26.3265 126.074 25.9724 126.027 25.5002C126.027 23.6113 125.508 22.2418 124.469 21.3918C123.477 20.5419 122.037 20.1169 120.148 20.1169C117.834 20.1169 115.756 20.8724 113.915 22.3835C112.12 23.8474 110.822 26.1849 110.019 29.396C109.83 30.246 109.641 31.1196 109.452 32.0168C109.263 32.914 109.098 33.6931 108.956 34.3543C108.437 37.6126 108.673 39.9737 109.665 41.4375C110.656 42.9014 112.309 43.6334 114.623 43.6334C116.465 43.6334 118.117 43.2556 119.581 42.5C121.045 41.6973 122.273 40.3514 123.265 38.4626C123.548 37.9431 123.831 37.589 124.115 37.4001C124.445 37.164 124.846 37.0459 125.319 37.0459H131.694C132.166 37.0459 132.52 37.2112 132.756 37.5417C133.039 37.8251 133.11 38.2264 132.969 38.7459C132.638 39.7848 132.024 41.0125 131.127 42.4292C130.277 43.7986 129.096 45.1445 127.585 46.4667C126.074 47.7889 124.162 48.875 121.848 49.725C119.581 50.575 116.866 51 113.702 51Z" fill="url(#paint2_linear_207_4871)"/>
<path d="M82.6314 50.2913C82.1592 50.2913 81.7814 50.126 81.4981 49.7955C81.262 49.4649 81.1911 49.0635 81.2856 48.5913L91.273 1.69999C91.3675 1.22777 91.6036 0.826383 91.9813 0.495832C92.3591 0.165277 92.7841 0 93.2563 0H99.1355C99.6549 0 100.033 0.165277 100.269 0.495832C100.552 0.826383 100.647 1.22777 100.552 1.69999L90.5647 48.5913C90.4702 49.0635 90.2341 49.4649 89.8564 49.7955C89.4786 50.126 89.03 50.2913 88.5105 50.2913H82.6314Z" fill="url(#paint3_linear_207_4871)"/>
<path d="M55.3292 51C52.8737 51 50.7959 50.5986 49.0959 49.7958C47.3959 48.9458 46.0501 47.7653 45.0585 46.2542C44.114 44.7431 43.5001 42.9722 43.2168 40.9417C42.9335 38.8639 42.9807 36.5973 43.3585 34.1418C43.5474 33.2918 43.7126 32.5362 43.8543 31.8751C43.996 31.1668 44.1612 30.3876 44.3501 29.5376C44.964 27.1765 45.7668 24.9807 46.7585 22.9502C47.7973 20.9196 49.0487 19.1488 50.5126 17.6377C52.0237 16.0794 53.7709 14.8752 55.7542 14.0252C57.7848 13.1752 60.0986 12.7502 62.6958 12.7502C65.6236 12.7502 67.843 13.2225 69.3541 14.1669C70.9124 15.0641 72.1166 16.1738 72.9666 17.496L73.4624 15.1586C73.5569 14.6863 73.793 14.285 74.1707 13.9544C74.5485 13.6238 74.9735 13.4586 75.4457 13.4586H81.0415C81.5137 13.4586 81.8915 13.6238 82.1749 13.9544C82.4582 14.285 82.5526 14.6863 82.4582 15.1586L75.3041 48.5916C75.2096 49.0639 74.9735 49.4653 74.5957 49.7958C74.218 50.1264 73.793 50.2916 73.3208 50.2916H67.725C67.2055 50.2916 66.8041 50.1264 66.5208 49.7958C66.2847 49.4653 66.2139 49.0639 66.3083 48.5916L66.875 45.9708C65.4583 47.4347 63.9 48.6389 62.2 49.5833C60.5 50.5277 58.2098 51 55.3292 51ZM58.5167 43.4209C60.5 43.4209 62.2 42.9722 63.6167 42.075C65.0333 41.1778 66.1666 40.0445 67.0166 38.6751C67.9138 37.2584 68.5513 35.8181 68.9291 34.3543C69.1652 33.5043 69.3777 32.607 69.5666 31.6626C69.7555 30.6709 69.9208 29.7501 70.0624 28.9001C70.3458 27.4835 70.3458 26.1376 70.0624 24.8627C69.8263 23.5404 69.2361 22.4543 68.2916 21.6043C67.3472 20.7544 65.9069 20.3294 63.9708 20.3294C62.1292 20.3294 60.5472 20.778 59.225 21.6752C57.95 22.5252 56.8875 23.6585 56.0375 25.0752C55.1876 26.4918 54.5028 28.0501 53.9834 29.7501C53.7945 30.4584 53.6292 31.1668 53.4876 31.8751C53.3459 32.5834 53.2278 33.2918 53.1334 34.0001C52.8973 35.7001 52.8265 37.2584 52.9209 38.6751C53.0626 40.0917 53.5584 41.2486 54.4084 42.1459C55.3056 42.9959 56.675 43.4209 58.5167 43.4209Z" fill="url(#paint4_linear_207_4871)"/>
<path d="M2.31812 49.7037C1.80298 49.7037 1.40491 49.5398 1.12393 49.212C0.889772 48.8842 0.819526 48.4861 0.913188 48.0178L10.6774 2.28741C10.7711 1.77227 11.0053 1.35079 11.3799 1.02298C11.7546 0.695159 12.1994 0.53125 12.7146 0.53125H45.3265C45.8417 0.53125 46.2163 0.695159 46.4505 1.02298C46.6846 1.35079 46.7549 1.77227 46.6612 2.28741L45.6075 7.55882C45.5138 8.07396 45.2797 8.49544 44.905 8.82326C44.5304 9.10425 44.0855 9.24474 43.5704 9.24474H22.1826C21.4354 9.24474 20.7151 9.52359 20.1626 10.0267L16.0162 13.803C15.3275 14.4302 15.163 15.4498 15.6195 16.2618L17.9197 20.3534C18.451 21.2984 19.4507 21.8832 20.5348 21.8832H39.2853C39.8005 21.8832 40.1751 22.0471 40.4093 22.375C40.6434 22.7028 40.7137 23.1242 40.62 23.6394L39.6366 28.9108C39.5429 29.3791 39.2853 29.7772 38.8639 30.105C38.4892 30.4328 38.0443 30.5967 37.5292 30.5967H20.0804C17.2934 30.5967 14.8734 32.5158 14.2383 35.2294L11.2453 48.0178C11.1516 48.4861 10.9175 48.8842 10.5428 49.212C10.1682 49.5398 9.72327 49.7037 9.20813 49.7037H2.31812Z" fill="url(#paint5_linear_207_4871)"/>
<defs>
<linearGradient id="paint0_linear_207_4871" x1="196.816" y1="9.65655" x2="197.454" y2="62.1052" gradientUnits="userSpaceOnUse">
<stop stop-color="#004DFF"/>
<stop offset="0.295" stop-color="#0457FE"/>
<stop offset="0.475" stop-color="#0D70FC"/>
<stop offset="1" stop-color="#00D0FF"/>
</linearGradient>
<linearGradient id="paint1_linear_207_4871" x1="157.464" y1="9.59818" x2="158.175" y2="63.0349" gradientUnits="userSpaceOnUse">
<stop stop-color="#004DFF"/>
<stop offset="0.295" stop-color="#0457FE"/>
<stop offset="0.475" stop-color="#0D70FC"/>
<stop offset="1" stop-color="#00D0FF"/>
</linearGradient>
<linearGradient id="paint2_linear_207_4871" x1="119.009" y1="9.59818" x2="119.726" y2="63.0348" gradientUnits="userSpaceOnUse">
<stop stop-color="#004DFF"/>
<stop offset="0.295" stop-color="#0457FE"/>
<stop offset="0.475" stop-color="#0D70FC"/>
<stop offset="1" stop-color="#00D0FF"/>
</linearGradient>
<linearGradient id="paint3_linear_207_4871" x1="91.7273" y1="-4.14438" x2="94.0924" y2="66.0478" gradientUnits="userSpaceOnUse">
<stop stop-color="#004DFF"/>
<stop offset="0.295" stop-color="#0457FE"/>
<stop offset="0.475" stop-color="#0D70FC"/>
<stop offset="1" stop-color="#00D0FF"/>
</linearGradient>
<linearGradient id="paint4_linear_207_4871" x1="64.4185" y1="9.59818" x2="65.0898" y2="63.036" gradientUnits="userSpaceOnUse">
<stop stop-color="#004DFF"/>
<stop offset="0.295" stop-color="#0457FE"/>
<stop offset="0.475" stop-color="#0D70FC"/>
<stop offset="1" stop-color="#00D0FF"/>
</linearGradient>
<linearGradient id="paint5_linear_207_4871" x1="25.7086" y1="-3.52093" x2="26.6638" y2="65.1743" gradientUnits="userSpaceOnUse">
<stop stop-color="#004DFF"/>
<stop offset="0.295" stop-color="#0457FE"/>
<stop offset="0.475" stop-color="#0D70FC"/>
<stop offset="1" stop-color="#00D0FF"/>
</linearGradient>
</defs>
</svg>
