<svg width="24" height="24" viewBox="0 0 24 24" fill="none" xmlns="http://www.w3.org/2000/svg">
<g filter="url(#filter0_i_402_12866)">
<path d="M16.8647 2.08301H8.13558C4.34391 2.08301 2.0835 4.34342 2.0835 8.13509V16.8538C2.0835 20.6559 4.34391 22.9163 8.13558 22.9163H16.8543C20.646 22.9163 22.9064 20.6559 22.9064 16.8643V8.13509C22.9168 4.34342 20.6564 2.08301 16.8647 2.08301ZM16.6668 13.2809H13.2814V16.6663C13.2814 17.0934 12.9272 17.4476 12.5002 17.4476C12.0731 17.4476 11.7189 17.0934 11.7189 16.6663V13.2809H8.3335C7.90641 13.2809 7.55225 12.9268 7.55225 12.4997C7.55225 12.0726 7.90641 11.7184 8.3335 11.7184H11.7189V8.33301C11.7189 7.90592 12.0731 7.55176 12.5002 7.55176C12.9272 7.55176 13.2814 7.90592 13.2814 8.33301V11.7184H16.6668C17.0939 11.7184 17.4481 12.0726 17.4481 12.4997C17.4481 12.9268 17.0939 13.2809 16.6668 13.2809Z" fill="#2D68FE"/>
</g>
<defs>
<filter id="filter0_i_402_12866" x="0" y="0" width="24" height="28" filterUnits="userSpaceOnUse" color-interpolation-filters="sRGB">
<feFlood flood-opacity="0" result="BackgroundImageFix"/>
<feBlend mode="normal" in="SourceGraphic" in2="BackgroundImageFix" result="shape"/>
<feColorMatrix in="SourceAlpha" type="matrix" values="0 0 0 0 0 0 0 0 0 0 0 0 0 0 0 0 0 0 127 0" result="hardAlpha"/>
<feOffset dy="4"/>
<feGaussianBlur stdDeviation="2"/>
<feComposite in2="hardAlpha" operator="arithmetic" k2="-1" k3="1"/>
<feColorMatrix type="matrix" values="0 0 0 0 1 0 0 0 0 1 0 0 0 0 1 0 0 0 0.25 0"/>
<feBlend mode="normal" in2="shape" result="effect1_innerShadow_402_12866"/>
</filter>
</defs>
</svg>
