<svg width="16" height="16" viewBox="0 0 16 16" fill="none" xmlns="http://www.w3.org/2000/svg">
<path d="M14.4735 4.86028C14.4115 4.7978 14.3377 4.7482 14.2565 4.71436C14.1753 4.68051 14.0881 4.66309 14.0001 4.66309C13.9121 4.66309 13.825 4.68051 13.7437 4.71436C13.6625 4.7482 13.5888 4.7978 13.5268 4.86028L9.33346 9.06029L6.47346 6.19362C6.41148 6.13113 6.33775 6.08154 6.25651 6.04769C6.17527 6.01384 6.08813 5.99642 6.00012 5.99642C5.91211 5.99642 5.82498 6.01384 5.74374 6.04769C5.6625 6.08154 5.58876 6.13113 5.52679 6.19362L1.52679 10.1936C1.4643 10.2556 1.41471 10.3293 1.38086 10.4106C1.34702 10.4918 1.32959 10.5789 1.32959 10.667C1.32959 10.755 1.34702 10.8421 1.38086 10.9233C1.41471 11.0046 1.4643 11.0783 1.52679 11.1403C1.58876 11.2028 1.6625 11.2524 1.74374 11.2862C1.82498 11.3201 1.91211 11.3375 2.00012 11.3375C2.08813 11.3375 2.17527 11.3201 2.25651 11.2862C2.33775 11.2524 2.41148 11.2028 2.47346 11.1403L6.00012 7.60695L8.86012 10.4736C8.9221 10.5361 8.99583 10.5857 9.07707 10.6195C9.15831 10.6534 9.24545 10.6708 9.33346 10.6708C9.42146 10.6708 9.5086 10.6534 9.58984 10.6195C9.67108 10.5857 9.74481 10.5361 9.80679 10.4736L14.4735 5.80695C14.5359 5.74498 14.5855 5.67124 14.6194 5.59C14.6532 5.50876 14.6707 5.42163 14.6707 5.33362C14.6707 5.24561 14.6532 5.15847 14.6194 5.07723C14.5855 4.99599 14.5359 4.92226 14.4735 4.86028V4.86028Z" fill="#2D68FE"/>
</svg>
