<svg width="19" height="18" viewBox="0 0 19 18" fill="none" xmlns="http://www.w3.org/2000/svg">
<path d="M6.10021 16.5H12.1002C15.1152 16.5 15.6552 15.2925 15.8127 13.8225L16.3752 7.8225C16.5777 5.9925 16.0527 4.5 12.8502 4.5H5.35021C2.14771 4.5 1.62271 5.9925 1.82521 7.8225L2.38771 13.8225C2.54521 15.2925 3.08521 16.5 6.10021 16.5Z" stroke="#2D68FE" stroke-width="1.1" stroke-miterlimit="10" stroke-linecap="round" stroke-linejoin="round"/>
<path d="M6.1001 4.5V3.9C6.1001 2.5725 6.1001 1.5 8.5001 1.5H9.7001C12.1001 1.5 12.1001 2.5725 12.1001 3.9V4.5" stroke="#2D68FE" stroke-width="1.1" stroke-miterlimit="10" stroke-linecap="round" stroke-linejoin="round"/>
<path d="M10.6001 9.75V10.5C10.6001 10.5075 10.6001 10.5075 10.6001 10.515C10.6001 11.3325 10.5926 12 9.1001 12C7.6151 12 7.6001 11.34 7.6001 10.5225V9.75C7.6001 9 7.6001 9 8.3501 9H9.8501C10.6001 9 10.6001 9 10.6001 9.75Z" stroke="#2D68FE" stroke-width="1.1" stroke-miterlimit="10" stroke-linecap="round" stroke-linejoin="round"/>
<path d="M16.3376 8.25C14.6051 9.51 12.6251 10.26 10.6001 10.515" stroke="#2D68FE" stroke-width="1.1" stroke-miterlimit="10" stroke-linecap="round" stroke-linejoin="round"/>
<path d="M2.06494 8.45239C3.75244 9.60739 5.65744 10.3049 7.59994 10.5224" stroke="#2D68FE" stroke-width="1.1" stroke-miterlimit="10" stroke-linecap="round" stroke-linejoin="round"/>
</svg>
