<svg width="31" height="31" viewBox="0 0 31 31" fill="none" xmlns="http://www.w3.org/2000/svg">
<g filter="url(#filter0_i_54_375)">
<path d="M27.125 15.7084H22.775C21.55 15.7084 20.4625 16.3834 19.9125 17.4834L18.8625 19.5584C18.6125 20.0584 18.1125 20.3709 17.5625 20.3709H13.4625C13.075 20.3709 12.525 20.2834 12.1625 19.5584L11.1125 17.4959C10.5625 16.4084 9.4625 15.7209 8.25 15.7209H3.875C3.3875 15.7209 3 16.1084 3 16.5959V20.6709C3 25.2084 5.725 27.9209 10.275 27.9209H20.75C25.0375 27.9209 27.675 25.5709 28 21.3959V16.5834C28 16.1084 27.6125 15.7084 27.125 15.7084Z" fill="#2D68FE"/>
<path d="M20.7375 2.9209H10.2625C5.7125 2.9209 3 5.6334 3 10.1834V13.9834C3.275 13.8834 3.575 13.8334 3.875 13.8334H8.25C10.1875 13.8334 11.925 14.9084 12.7875 16.6459L13.725 18.4834H17.3L18.2375 16.6334C19.1 14.9084 20.8375 13.8334 22.775 13.8334H27.125C27.425 13.8334 27.725 13.8834 28 13.9834V10.1834C28 5.6334 25.2875 2.9209 20.7375 2.9209ZM13.5625 7.1834H17.4375C17.9125 7.1834 18.3125 7.5709 18.3125 8.0459C18.3125 8.5334 17.9125 8.9209 17.4375 8.9209H13.5625C13.0875 8.9209 12.6875 8.5334 12.6875 8.0459C12.6875 7.5709 13.0875 7.1834 13.5625 7.1834ZM18.4125 12.4084H12.5875C12.1125 12.4084 11.725 12.0209 11.725 11.5459C11.725 11.0584 12.1125 10.6709 12.5875 10.6709H18.4125C18.8875 10.6709 19.275 11.0584 19.275 11.5459C19.275 12.0209 18.8875 12.4084 18.4125 12.4084Z" fill="#2D68FE"/>
</g>
<defs>
<filter id="filter0_i_54_375" x="0.5" y="0.420898" width="30" height="32" filterUnits="userSpaceOnUse" color-interpolation-filters="sRGB">
<feFlood flood-opacity="0" result="BackgroundImageFix"/>
<feBlend mode="normal" in="SourceGraphic" in2="BackgroundImageFix" result="shape"/>
<feColorMatrix in="SourceAlpha" type="matrix" values="0 0 0 0 0 0 0 0 0 0 0 0 0 0 0 0 0 0 127 0" result="hardAlpha"/>
<feOffset dy="2"/>
<feGaussianBlur stdDeviation="3"/>
<feComposite in2="hardAlpha" operator="arithmetic" k2="-1" k3="1"/>
<feColorMatrix type="matrix" values="0 0 0 0 1 0 0 0 0 1 0 0 0 0 1 0 0 0 0.25 0"/>
<feBlend mode="normal" in2="shape" result="effect1_innerShadow_54_375"/>
</filter>
</defs>
</svg>
