<svg width="19" height="18" viewBox="0 0 19 18" fill="none" xmlns="http://www.w3.org/2000/svg">
<path d="M7.40381 10.7474C7.40381 11.7149 8.14631 12.4949 9.06881 12.4949H10.9513C11.7538 12.4949 12.4063 11.8124 12.4063 10.9724C12.4063 10.0574 12.0088 9.73488 11.4163 9.52488L8.39381 8.47488C7.80131 8.26488 7.40381 7.94238 7.40381 7.02738C7.40381 6.18738 8.05631 5.50488 8.85881 5.50488H10.7413C11.6638 5.50488 12.4063 6.28488 12.4063 7.25238" stroke="#2D68FE" stroke-width="1.1" stroke-linecap="round" stroke-linejoin="round"/>
<path d="M9.8999 4.5V13.5" stroke="#2D68FE" stroke-width="1.1" stroke-linecap="round" stroke-linejoin="round"/>
<path d="M12.1499 16.5H7.6499C3.8999 16.5 2.3999 15 2.3999 11.25V6.75C2.3999 3 3.8999 1.5 7.6499 1.5H12.1499C15.8999 1.5 17.3999 3 17.3999 6.75V11.25C17.3999 15 15.8999 16.5 12.1499 16.5Z" stroke="#2D68FE" stroke-width="1.1" stroke-linecap="round" stroke-linejoin="round"/>
</svg>
