<svg width="19" height="18" viewBox="0 0 19 18" fill="none" xmlns="http://www.w3.org/2000/svg">
<path d="M7.76982 8.1525C7.69482 8.145 7.60482 8.145 7.52232 8.1525C5.73732 8.0925 4.31982 6.63 4.31982 4.83C4.31982 2.9925 5.80482 1.5 7.64982 1.5C9.48732 1.5 10.9798 2.9925 10.9798 4.83C10.9723 6.63 9.55482 8.0925 7.76982 8.1525Z" stroke="#2D68FE" stroke-width="1.1" stroke-linecap="round" stroke-linejoin="round"/>
<path d="M13.2074 3C14.6624 3 15.8324 4.1775 15.8324 5.625C15.8324 7.0425 14.7074 8.1975 13.3049 8.25C13.2449 8.2425 13.1774 8.2425 13.1099 8.25" stroke="#2D68FE" stroke-width="1.1" stroke-linecap="round" stroke-linejoin="round"/>
<path d="M4.01994 10.92C2.20494 12.135 2.20494 14.115 4.01994 15.3225C6.08244 16.7025 9.46494 16.7025 11.5274 15.3225C13.3424 14.1075 13.3424 12.1275 11.5274 10.92C9.47244 9.5475 6.08994 9.5475 4.01994 10.92Z" stroke="#2D68FE" stroke-width="1.1" stroke-linecap="round" stroke-linejoin="round"/>
<path d="M14.6548 15C15.1948 14.8875 15.7048 14.67 16.1248 14.3475C17.2948 13.47 17.2948 12.0225 16.1248 11.145C15.7123 10.83 15.2098 10.62 14.6773 10.5" stroke="#2D68FE" stroke-width="1.1" stroke-linecap="round" stroke-linejoin="round"/>
</svg>
