<svg width="19" height="18" viewBox="0 0 19 18" fill="none" xmlns="http://www.w3.org/2000/svg">
<path d="M17.3997 12.9C17.3997 13.575 17.2122 14.2125 16.8747 14.7525C16.2522 15.795 15.1122 16.5 13.7997 16.5C12.4872 16.5 11.3397 15.795 10.7247 14.7525C10.3947 14.2125 10.1997 13.575 10.1997 12.9C10.1997 10.9125 11.8122 9.30005 13.7997 9.30005C15.7872 9.30005 17.3997 10.9125 17.3997 12.9Z" stroke="#2D68FE" stroke-width="1.1" stroke-miterlimit="10" stroke-linecap="round" stroke-linejoin="round"/>
<path d="M12.397 12.9001L13.282 13.7851L15.202 12.0151" stroke="#2D68FE" stroke-width="1.1" stroke-linecap="round" stroke-linejoin="round"/>
<path d="M17.3999 6.51747C17.3999 7.99497 17.0174 9.29995 16.4174 10.4324C15.7574 9.73495 14.8274 9.29999 13.7999 9.29999C11.8124 9.29999 10.1999 10.9125 10.1999 12.9C10.1999 13.8225 10.5524 14.6625 11.1224 15.3C10.8449 15.4275 10.5899 15.5325 10.3649 15.6075C10.1099 15.6975 9.6899 15.6975 9.4349 15.6075C7.2599 14.865 2.3999 11.7675 2.3999 6.51747C2.3999 4.19997 4.2674 2.32495 6.5699 2.32495C7.9274 2.32495 9.1424 2.98498 9.8999 3.99748C10.6574 2.98498 11.8724 2.32495 13.2299 2.32495C15.5324 2.32495 17.3999 4.19997 17.3999 6.51747Z" stroke="#2D68FE" stroke-width="1.1" stroke-linecap="round" stroke-linejoin="round"/>
</svg>
