<svg width="13" height="14" viewBox="0 0 13 14" fill="none" xmlns="http://www.w3.org/2000/svg">
<path d="M1.89603 11.604C2.34561 12.0535 3.07144 12.0535 3.52103 11.604L10.5627 4.56228C11.0123 4.1127 11.0123 3.38687 10.5627 2.93729C10.1131 2.4877 9.38728 2.4877 8.93769 2.93729L1.89603 9.97895C1.44644 10.4285 1.44644 11.1544 1.89603 11.604Z" stroke="#2D68FE" stroke-width="0.7" stroke-linecap="round" stroke-linejoin="round"/>
<path d="M9.75513 5.36963L8.13013 3.74463" stroke="#2D68FE" stroke-width="0.6" stroke-linecap="round" stroke-linejoin="round"/>
<path d="M4.60376 1.82183L5.41626 1.5835L5.17793 2.396L5.41626 3.2085L4.60376 2.97016L3.79126 3.2085L4.02959 2.396L3.79126 1.5835L4.60376 1.82183Z" stroke="#2D68FE" stroke-width="0.6" stroke-linecap="round" stroke-linejoin="round"/>
<path d="M2.4375 5.07183L3.25 4.8335L3.01167 5.646L3.25 6.4585L2.4375 6.22016L1.625 6.4585L1.86333 5.646L1.625 4.8335L2.4375 5.07183Z" stroke="#2D68FE" stroke-width="0.6" stroke-linecap="round" stroke-linejoin="round"/>
<path d="M10.5625 7.77984L11.375 7.5415L11.1367 8.354L11.375 9.1665L10.5625 8.92817L9.75 9.1665L9.98833 8.354L9.75 7.5415L10.5625 7.77984Z" stroke="#2D68FE" stroke-width="0.6" stroke-linecap="round" stroke-linejoin="round"/>
</svg>
