<svg width="19" height="18" viewBox="0 0 19 18" fill="none" xmlns="http://www.w3.org/2000/svg">
<path d="M17.3999 12.555V3.50252C17.3999 2.60252 16.6649 1.93502 15.7724 2.01002H15.7274C14.1524 2.14502 11.7599 2.94752 10.4249 3.78752L10.2974 3.87002C10.0799 4.00502 9.7199 4.00502 9.5024 3.87002L9.3149 3.75752C7.9799 2.92502 5.5949 2.13002 4.0199 2.00252C3.1274 1.92752 2.3999 2.60252 2.3999 3.49502V12.555C2.3999 13.275 2.9849 13.95 3.7049 14.04L3.9224 14.07C5.5499 14.2875 8.0624 15.1125 9.5024 15.9L9.5324 15.915C9.7349 16.0275 10.0574 16.0275 10.2524 15.915C11.6924 15.12 14.2124 14.2875 15.8474 14.07L16.0949 14.04C16.8149 13.95 17.3999 13.275 17.3999 12.555Z" stroke="#2D68FE" stroke-width="1.1" stroke-linecap="round" stroke-linejoin="round"/>
<path d="M9.8999 4.11743V15.3674" stroke="#2D68FE" stroke-width="1.1" stroke-linecap="round" stroke-linejoin="round"/>
<path d="M6.7124 6.36743H5.0249" stroke="#2D68FE" stroke-width="1.1" stroke-linecap="round" stroke-linejoin="round"/>
<path d="M7.2749 8.61743H5.0249" stroke="#2D68FE" stroke-width="1.1" stroke-linecap="round" stroke-linejoin="round"/>
</svg>
