<svg width="19" height="18" viewBox="0 0 19 18" fill="none" xmlns="http://www.w3.org/2000/svg">
<path d="M7.63773 1.89747L3.12273 4.84497C1.67523 5.78997 1.67523 7.90497 3.12273 8.84997L7.63773 11.7975C8.44773 12.33 9.78273 12.33 10.5927 11.7975L15.0852 8.84997C16.5252 7.90497 16.5252 5.79747 15.0852 4.85247L10.5927 1.90497C9.78273 1.36497 8.44773 1.36497 7.63773 1.89747Z" stroke="#2D68FE" stroke-width="1.1" stroke-linecap="round" stroke-linejoin="round"/>
<path d="M4.32244 9.81006L4.31494 13.3276C4.31494 14.2801 5.04994 15.3001 5.94994 15.6001L8.34244 16.3951C8.75494 16.5301 9.43744 16.5301 9.85744 16.3951L12.2499 15.6001C13.1499 15.3001 13.8849 14.2801 13.8849 13.3276V9.84756" stroke="#2D68FE" stroke-width="1.1" stroke-linecap="round" stroke-linejoin="round"/>
<path d="M16.1499 11.25V6.75" stroke="#2D68FE" stroke-width="1.1" stroke-linecap="round" stroke-linejoin="round"/>
</svg>
