<svg width="17" height="17" viewBox="0 0 17 17" fill="none" xmlns="http://www.w3.org/2000/svg">
<path d="M14.6668 9.7934V11.333C14.6668 13.6663 13.3335 14.6663 11.3335 14.6663H4.66683C2.66683 14.6663 1.3335 13.6663 1.3335 11.333V6.66634C1.3335 4.33301 2.66683 3.33301 4.66683 3.33301H7.00024" stroke="#2D68FE" stroke-width="1.5" stroke-miterlimit="10" stroke-linecap="round" stroke-linejoin="round"/>
<path d="M4.6665 7L6.75317 8.66667C7.43984 9.21333 8.31309 9.54667 8.99976 9" stroke="#2D68FE" stroke-width="1.5" stroke-miterlimit="10" stroke-linecap="round" stroke-linejoin="round"/>
<path d="M13.2675 1.7786L13.5339 2.32147C13.6671 2.58815 14.0001 2.83578 14.295 2.89293L14.6566 2.95007C15.7413 3.13103 15.9982 3.93106 15.218 4.72157L14.8849 5.05491C14.6661 5.28349 14.5424 5.7216 14.609 6.02638L14.6566 6.22639C14.9516 7.54073 14.257 8.0455 13.1152 7.35976L12.8678 7.2169C12.5729 7.04547 12.0971 7.04547 11.8022 7.2169L11.5548 7.35976C10.4035 8.05502 9.70893 7.54073 10.0134 6.22639L10.061 6.02638C10.1276 5.7216 10.0039 5.28349 9.78506 5.05491L9.45204 4.72157C8.67183 3.93106 8.92872 3.13103 10.0134 2.95007L10.375 2.89293C10.6604 2.84531 11.0029 2.58815 11.1361 2.32147L11.4025 1.7786C11.9163 0.740466 12.7537 0.740466 13.2675 1.7786Z" stroke="#2D68FE" stroke-width="1.5" stroke-linecap="round" stroke-linejoin="round"/>
</svg>
