<svg width="16" height="16" viewBox="0 0 16 16" fill="none" xmlns="http://www.w3.org/2000/svg">
<path d="M1.31982 8.66682H3.84649C4.35316 8.66682 4.81316 8.95349 5.03982 9.40682L5.63316 10.6002C5.99982 11.3335 6.66649 11.3335 6.82649 11.3335H9.17983C9.68649 11.3335 10.1465 11.0468 10.3732 10.5935L10.9665 9.40016C11.1932 8.94682 11.6532 8.66016 12.1598 8.66016H14.6532" stroke="#2D68FE" stroke-width="1.5" stroke-linecap="round" stroke-linejoin="round"/>
<path d="M12.6665 5.33301C13.7711 5.33301 14.6665 4.43758 14.6665 3.33301C14.6665 2.22844 13.7711 1.33301 12.6665 1.33301C11.5619 1.33301 10.6665 2.22844 10.6665 3.33301C10.6665 4.43758 11.5619 5.33301 12.6665 5.33301Z" stroke="#2D68FE" stroke-width="1.5" stroke-linecap="round" stroke-linejoin="round"/>
<path d="M9.3335 1.33301H6.00016C2.66683 1.33301 1.3335 2.66634 1.3335 5.99967V9.99967C1.3335 13.333 2.66683 14.6663 6.00016 14.6663H10.0002C13.3335 14.6663 14.6668 13.333 14.6668 9.99967V6.66634" stroke="#2D68FE" stroke-width="1.5" stroke-linecap="round" stroke-linejoin="round"/>
</svg>
