<svg width="16" height="16" viewBox="0 0 16 16" fill="none" xmlns="http://www.w3.org/2000/svg">
<path d="M14.4735 4.8598C14.4115 4.79731 14.3377 4.74771 14.2565 4.71387C14.1753 4.68002 14.0881 4.6626 14.0001 4.6626C13.9121 4.6626 13.825 4.68002 13.7437 4.71387C13.6625 4.74771 13.5888 4.79731 13.5268 4.8598L9.33346 9.0598L6.47346 6.19313C6.41148 6.13064 6.33775 6.08105 6.25651 6.0472C6.17527 6.01336 6.08813 5.99593 6.00012 5.99593C5.91211 5.99593 5.82498 6.01336 5.74374 6.0472C5.6625 6.08105 5.58876 6.13064 5.52679 6.19313L1.52679 10.1931C1.4643 10.2551 1.41471 10.3288 1.38086 10.4101C1.34702 10.4913 1.32959 10.5785 1.32959 10.6665C1.32959 10.7545 1.34702 10.8416 1.38086 10.9228C1.41471 11.0041 1.4643 11.0778 1.52679 11.1398C1.58876 11.2023 1.6625 11.2519 1.74374 11.2857C1.82498 11.3196 1.91211 11.337 2.00012 11.337C2.08813 11.337 2.17527 11.3196 2.25651 11.2857C2.33775 11.2519 2.41148 11.2023 2.47346 11.1398L6.00012 7.60646L8.86012 10.4731C8.9221 10.5356 8.99583 10.5852 9.07707 10.6191C9.15831 10.6529 9.24545 10.6703 9.33346 10.6703C9.42146 10.6703 9.5086 10.6529 9.58984 10.6191C9.67108 10.5852 9.74481 10.5356 9.80679 10.4731L14.4735 5.80646C14.5359 5.74449 14.5855 5.67075 14.6194 5.58951C14.6532 5.50827 14.6707 5.42114 14.6707 5.33313C14.6707 5.24512 14.6532 5.15798 14.6194 5.07675C14.5855 4.99551 14.5359 4.92177 14.4735 4.8598V4.8598Z" fill="#71839B"/>
</svg>
