<svg width="60" height="24" viewBox="0 0 60 24" fill="none" xmlns="http://www.w3.org/2000/svg">
<rect x="0.5" y="0.5" width="58.9996" height="23" rx="3.5" fill="white"/>
<rect x="0.5" y="0.5" width="58.9996" height="23" rx="3.5" stroke="#D4D9E0"/>
<rect x="12.0381" y="6.5" width="7.46154" height="9.4" rx="1.5" fill="white" stroke="#324054"/>
<rect x="10.5" y="8.1001" width="7.46154" height="9.4" rx="1.5" fill="white" stroke="#324054"/>
<path d="M27.3633 15.2266C27.6211 15.2266 27.8594 15.1738 28.0781 15.0684C28.2969 14.9629 28.4766 14.8184 28.6172 14.6348C28.7578 14.4473 28.8379 14.2344 28.8574 13.9961H29.8887C29.8691 14.3711 29.7422 14.7207 29.5078 15.0449C29.2773 15.3652 28.9746 15.625 28.5996 15.8242C28.2246 16.0195 27.8125 16.1172 27.3633 16.1172C26.8867 16.1172 26.4707 16.0332 26.1152 15.8652C25.7637 15.6973 25.4707 15.4668 25.2363 15.1738C25.0059 14.8809 24.832 14.5449 24.7148 14.166C24.6016 13.7832 24.5449 13.3789 24.5449 12.9531V12.707C24.5449 12.2812 24.6016 11.8789 24.7148 11.5C24.832 11.1172 25.0059 10.7793 25.2363 10.4863C25.4707 10.1934 25.7637 9.96289 26.1152 9.79492C26.4707 9.62695 26.8867 9.54297 27.3633 9.54297C27.8594 9.54297 28.293 9.64453 28.6641 9.84766C29.0352 10.0469 29.3262 10.3203 29.5371 10.668C29.752 11.0117 29.8691 11.4023 29.8887 11.8398H28.8574C28.8379 11.5781 28.7637 11.3418 28.6348 11.1309C28.5098 10.9199 28.3379 10.752 28.1191 10.627C27.9043 10.498 27.6523 10.4336 27.3633 10.4336C27.0312 10.4336 26.752 10.5 26.5254 10.6328C26.3027 10.7617 26.125 10.9375 25.9922 11.1602C25.8633 11.3789 25.7695 11.623 25.7109 11.8926C25.6562 12.1582 25.6289 12.4297 25.6289 12.707V12.9531C25.6289 13.2305 25.6562 13.5039 25.7109 13.7734C25.7656 14.043 25.8574 14.2871 25.9863 14.5059C26.1191 14.7246 26.2969 14.9004 26.5195 15.0332C26.7461 15.1621 27.0273 15.2266 27.3633 15.2266ZM30.8203 12.9004V12.7656C30.8203 12.3086 30.8867 11.8848 31.0195 11.4941C31.1523 11.0996 31.3438 10.7578 31.5938 10.4688C31.8438 10.1758 32.1465 9.94922 32.502 9.78906C32.8574 9.625 33.2559 9.54297 33.6973 9.54297C34.1426 9.54297 34.543 9.625 34.8984 9.78906C35.2578 9.94922 35.5625 10.1758 35.8125 10.4688C36.0664 10.7578 36.2598 11.0996 36.3926 11.4941C36.5254 11.8848 36.5918 12.3086 36.5918 12.7656V12.9004C36.5918 13.3574 36.5254 13.7812 36.3926 14.1719C36.2598 14.5625 36.0664 14.9043 35.8125 15.1973C35.5625 15.4863 35.2598 15.7129 34.9043 15.877C34.5527 16.0371 34.1543 16.1172 33.709 16.1172C33.2637 16.1172 32.8633 16.0371 32.5078 15.877C32.1523 15.7129 31.8477 15.4863 31.5938 15.1973C31.3438 14.9043 31.1523 14.5625 31.0195 14.1719C30.8867 13.7812 30.8203 13.3574 30.8203 12.9004ZM31.9043 12.7656V12.9004C31.9043 13.2168 31.9414 13.5156 32.0156 13.7969C32.0898 14.0742 32.2012 14.3203 32.3496 14.5352C32.502 14.75 32.6914 14.9199 32.918 15.0449C33.1445 15.166 33.4082 15.2266 33.709 15.2266C34.0059 15.2266 34.2656 15.166 34.4883 15.0449C34.7148 14.9199 34.9023 14.75 35.0508 14.5352C35.1992 14.3203 35.3105 14.0742 35.3848 13.7969C35.4629 13.5156 35.502 13.2168 35.502 12.9004V12.7656C35.502 12.4531 35.4629 12.1582 35.3848 11.8809C35.3105 11.5996 35.1973 11.3516 35.0449 11.1367C34.8965 10.918 34.709 10.7461 34.4824 10.6211C34.2598 10.4961 33.998 10.4336 33.6973 10.4336C33.4004 10.4336 33.1387 10.4961 32.9121 10.6211C32.6895 10.7461 32.502 10.918 32.3496 11.1367C32.2012 11.3516 32.0898 11.5996 32.0156 11.8809C31.9414 12.1582 31.9043 12.4531 31.9043 12.7656ZM39.0352 10.8789V18.4375H37.9453V9.66016H38.9414L39.0352 10.8789ZM43.3066 12.7773V12.9004C43.3066 13.3613 43.252 13.7891 43.1426 14.1836C43.0332 14.5742 42.873 14.9141 42.6621 15.2031C42.4551 15.4922 42.1992 15.7168 41.8945 15.877C41.5898 16.0371 41.2402 16.1172 40.8457 16.1172C40.4434 16.1172 40.0879 16.0508 39.7793 15.918C39.4707 15.7852 39.209 15.5918 38.9941 15.3379C38.7793 15.084 38.6074 14.7793 38.4785 14.4238C38.3535 14.0684 38.2676 13.668 38.2207 13.2227V12.5664C38.2676 12.0977 38.3555 11.6777 38.4844 11.3066C38.6133 10.9355 38.7832 10.6191 38.9941 10.3574C39.209 10.0918 39.4688 9.89062 39.7734 9.75391C40.0781 9.61328 40.4297 9.54297 40.8281 9.54297C41.2266 9.54297 41.5801 9.62109 41.8887 9.77734C42.1973 9.92969 42.457 10.1484 42.668 10.4336C42.8789 10.7188 43.0371 11.0605 43.1426 11.459C43.252 11.8535 43.3066 12.293 43.3066 12.7773ZM42.2168 12.9004V12.7773C42.2168 12.4609 42.1836 12.1641 42.1172 11.8867C42.0508 11.6055 41.9473 11.3594 41.8066 11.1484C41.6699 10.9336 41.4941 10.7656 41.2793 10.6445C41.0645 10.5195 40.8086 10.457 40.5117 10.457C40.2383 10.457 40 10.5039 39.7969 10.5977C39.5977 10.6914 39.4277 10.8184 39.2871 10.9785C39.1465 11.1348 39.0312 11.3145 38.9414 11.5176C38.8555 11.7168 38.791 11.9238 38.748 12.1387V13.6562C38.8262 13.9297 38.9355 14.1875 39.0762 14.4297C39.2168 14.668 39.4043 14.8613 39.6387 15.0098C39.873 15.1543 40.168 15.2266 40.5234 15.2266C40.8164 15.2266 41.0684 15.166 41.2793 15.0449C41.4941 14.9199 41.6699 14.75 41.8066 14.5352C41.9473 14.3203 42.0508 14.0742 42.1172 13.7969C42.1836 13.5156 42.2168 13.2168 42.2168 12.9004ZM46.4004 15.3438L48.1641 9.66016H49.3242L46.7812 16.9785C46.7227 17.1348 46.6445 17.3027 46.5469 17.4824C46.4531 17.666 46.332 17.8398 46.1836 18.0039C46.0352 18.168 45.8555 18.3008 45.6445 18.4023C45.4375 18.5078 45.1895 18.5605 44.9004 18.5605C44.8145 18.5605 44.7051 18.5488 44.5723 18.5254C44.4395 18.502 44.3457 18.4824 44.291 18.4668L44.2852 17.5879C44.3164 17.5918 44.3652 17.5957 44.4316 17.5996C44.502 17.6074 44.5508 17.6113 44.5781 17.6113C44.8242 17.6113 45.0332 17.5781 45.2051 17.5117C45.377 17.4492 45.5215 17.3418 45.6387 17.1895C45.7598 17.041 45.8633 16.8359 45.9492 16.5742L46.4004 15.3438ZM45.1055 9.66016L46.752 14.582L47.0332 15.7246L46.2539 16.123L43.9219 9.66016H45.1055Z" fill="#324054"/>
</svg>
