<svg width="25" height="25" viewBox="0 0 25 25" fill="none" xmlns="http://www.w3.org/2000/svg">
<path d="M12.5 2.4209V9.4209L14.5 7.4209" stroke="#324054" stroke-width="1.5" stroke-linecap="round" stroke-linejoin="round"/>
<path d="M12.5 9.4209L10.5 7.4209" stroke="#324054" stroke-width="1.5" stroke-linecap="round" stroke-linejoin="round"/>
<path d="M2.48047 13.4209H6.89047C7.27047 13.4209 7.61047 13.6309 7.78047 13.9709L8.95047 16.3109C9.29047 16.9909 9.98047 17.4209 10.7405 17.4209H14.2705C15.0305 17.4209 15.7205 16.9909 16.0605 16.3109L17.2305 13.9709C17.4005 13.6309 17.7505 13.4209 18.1205 13.4209H22.4805" stroke="#324054" stroke-width="1.5" stroke-linecap="round" stroke-linejoin="round"/>
<path d="M7.5 4.55078C3.96 5.07078 2.5 7.15078 2.5 11.4208V15.4208C2.5 20.4208 4.5 22.4208 9.5 22.4208H15.5C20.5 22.4208 22.5 20.4208 22.5 15.4208V11.4208C22.5 7.15078 21.04 5.07078 17.5 4.55078" stroke="#324054" stroke-width="1.5" stroke-linecap="round" stroke-linejoin="round"/>
</svg>
