<svg width="25" height="25" viewBox="0 0 25 25" fill="none" xmlns="http://www.w3.org/2000/svg">
<path d="M2.47998 13.4211H6.26998C7.02998 13.4211 7.71998 13.8511 8.05998 14.5311L8.94998 16.3211C9.49998 17.4211 10.5 17.4211 10.74 17.4211H14.27C15.03 17.4211 15.72 16.9911 16.06 16.3111L16.95 14.5211C17.29 13.8411 17.98 13.4111 18.74 13.4111H22.48" stroke="#324054" stroke-width="1.5" stroke-linecap="round" stroke-linejoin="round"/>
<path d="M19.5 8.4209C21.1569 8.4209 22.5 7.07775 22.5 5.4209C22.5 3.76404 21.1569 2.4209 19.5 2.4209C17.8431 2.4209 16.5 3.76404 16.5 5.4209C16.5 7.07775 17.8431 8.4209 19.5 8.4209Z" stroke="#324054" stroke-width="1.5" stroke-linecap="round" stroke-linejoin="round"/>
<path d="M14.5 2.4209H9.5C4.5 2.4209 2.5 4.4209 2.5 9.4209V15.4209C2.5 20.4209 4.5 22.4209 9.5 22.4209H15.5C20.5 22.4209 22.5 20.4209 22.5 15.4209V10.4209" stroke="#324054" stroke-width="1.5" stroke-linecap="round" stroke-linejoin="round"/>
</svg>
