<svg width="18" height="18" viewBox="0 0 18 18" fill="none" xmlns="http://www.w3.org/2000/svg">
<path d="M8.2915 1.91675H6.87484C3.33317 1.91675 1.9165 3.33341 1.9165 6.87508V11.1251C1.9165 14.6667 3.33317 16.0834 6.87484 16.0834H11.1248C14.6665 16.0834 16.0832 14.6667 16.0832 11.1251V9.70842" stroke="#324054" stroke-width="1.5" stroke-linecap="round" stroke-linejoin="round"/>
<path d="M11.8618 2.63922L6.28016 8.22089C6.06766 8.43339 5.85516 8.85131 5.81266 9.15589L5.50808 11.288C5.39474 12.0601 5.94016 12.5984 6.71224 12.4921L8.84432 12.1876C9.14182 12.1451 9.55974 11.9326 9.77933 11.7201L15.361 6.13839C16.3243 5.17506 16.7777 4.05589 15.361 2.63922C13.9443 1.22256 12.8252 1.67589 11.8618 2.63922Z" stroke="#324054" stroke-width="1.5" stroke-miterlimit="10" stroke-linecap="round" stroke-linejoin="round"/>
<path d="M11.0615 3.43945C11.5361 5.13237 12.8607 6.45695 14.5607 6.93862" stroke="#324054" stroke-width="1.5" stroke-miterlimit="10" stroke-linecap="round" stroke-linejoin="round"/>
</svg>
