<svg width="25" height="25" viewBox="0 0 25 25" fill="none" xmlns="http://www.w3.org/2000/svg">
<path d="M11 20.3209V4.5209C11 3.0209 10.36 2.4209 8.77 2.4209H4.73C3.14 2.4209 2.5 3.0209 2.5 4.5209V20.3209C2.5 21.8209 3.14 22.4209 4.73 22.4209H8.77C10.36 22.4209 11 21.8209 11 20.3209Z" stroke="#324054" stroke-width="1.5" stroke-linecap="round" stroke-linejoin="round"/>
<path d="M22.5 11.3209V4.5209C22.5 3.0209 21.86 2.4209 20.27 2.4209H16.23C14.64 2.4209 14 3.0209 14 4.5209V11.3209C14 12.8209 14.64 13.4209 16.23 13.4209H20.27C21.86 13.4209 22.5 12.8209 22.5 11.3209Z" stroke="#324054" stroke-width="1.5" stroke-linecap="round" stroke-linejoin="round"/>
<path d="M22.5 20.3209V18.5209C22.5 17.0209 21.86 16.4209 20.27 16.4209H16.23C14.64 16.4209 14 17.0209 14 18.5209V20.3209C14 21.8209 14.64 22.4209 16.23 22.4209H20.27C21.86 22.4209 22.5 21.8209 22.5 20.3209Z" stroke="#324054" stroke-width="1.5" stroke-linecap="round" stroke-linejoin="round"/>
</svg>
