<svg width="12" height="12" viewBox="0 0 12 12" fill="none" xmlns="http://www.w3.org/2000/svg">
<path d="M6 1.00012V4.00012L7 3.00012" stroke="#324054" stroke-width="0.9" stroke-linecap="round" stroke-linejoin="round"/>
<path d="M6.00049 4L5.00049 3" stroke="#324054" stroke-width="0.9" stroke-linecap="round" stroke-linejoin="round"/>
<path d="M3.5 6C1.5 6 1.5 6.895 1.5 8V8.5C1.5 9.88 1.5 11 4 11H8C10 11 10.5 9.88 10.5 8.5V8C10.5 6.895 10.5 6 8.5 6C8 6 7.86 6.105 7.6 6.3L7.09 6.84C6.5 7.47 5.5 7.47 4.905 6.84L4.4 6.3C4.14 6.105 4 6 3.5 6Z" stroke="#324054" stroke-width="0.9" stroke-miterlimit="10" stroke-linecap="round" stroke-linejoin="round"/>
<path d="M2.49951 6.00002V4.00002C2.49951 2.99502 2.49951 2.16502 3.99951 2.02002" stroke="#324054" stroke-width="0.9" stroke-miterlimit="10" stroke-linecap="round" stroke-linejoin="round"/>
<path d="M9.50049 6.00002V4.00002C9.50049 2.99502 9.50049 2.16502 8.00049 2.02002" stroke="#324054" stroke-width="0.9" stroke-miterlimit="10" stroke-linecap="round" stroke-linejoin="round"/>
</svg>
