<svg width="17" height="17" viewBox="0 0 17 17" fill="none" xmlns="http://www.w3.org/2000/svg">
<path d="M9.72547 2.48637L10.9721 4.9797C11.1421 5.32678 11.5955 5.6597 11.978 5.72345L14.2376 6.09887C15.6826 6.3397 16.0226 7.38803 14.9813 8.4222L13.2246 10.1789C12.9271 10.4764 12.7642 11.0501 12.8563 11.461L13.3592 13.6355C13.7559 15.3568 12.8421 16.0226 11.3192 15.123L9.20131 13.8693C8.81881 13.6426 8.18839 13.6426 7.79881 13.8693L5.68089 15.123C4.16506 16.0226 3.24422 15.3497 3.64089 13.6355L4.14381 11.461C4.23589 11.0501 4.07297 10.4764 3.77547 10.1789L2.01881 8.4222C0.984641 7.38803 1.31756 6.3397 2.76256 6.09887L5.02214 5.72345C5.39756 5.6597 5.85089 5.32678 6.02089 4.9797L7.26756 2.48637C7.94756 1.13345 9.05256 1.13345 9.72547 2.48637Z" fill="#FFBC14" stroke="#FFBC14" stroke-width="1.5" stroke-linecap="round" stroke-linejoin="round"/>
</svg>
