<svg width="17" height="17" viewBox="0 0 17 17" fill="none" xmlns="http://www.w3.org/2000/svg">
<path d="M9.94013 1.34854L11.4068 4.28187C11.6068 4.6902 12.1401 5.08187 12.5901 5.15687L15.2485 5.59853C16.9485 5.88187 17.3485 7.1152 16.1235 8.33187L14.0568 10.3985C13.7068 10.7485 13.5151 11.4235 13.6235 11.9069L14.2151 14.4652C14.6818 16.4902 13.6068 17.2735 11.8151 16.2152L9.32346 14.7402C8.87346 14.4735 8.13179 14.4735 7.67346 14.7402L5.18179 16.2152C3.39846 17.2735 2.31513 16.4819 2.78179 14.4652L3.37346 11.9069C3.48179 11.4235 3.29013 10.7485 2.94013 10.3985L0.873459 8.33187C-0.343207 7.1152 0.0484596 5.88187 1.74846 5.59853L4.40679 5.15687C4.84846 5.08187 5.38179 4.6902 5.58179 4.28187L7.04846 1.34854C7.84846 -0.243131 9.14846 -0.243131 9.94013 1.34854Z" fill="#FFBC14"/>
</svg>
