<svg width="19" height="19" viewBox="0 0 19 19" fill="none" xmlns="http://www.w3.org/2000/svg">
<path d="M7.9165 13.8545H11.0832" stroke="#324054" stroke-width="1.5" stroke-linecap="round" stroke-linejoin="round"/>
<path d="M1.5835 13.8545V5.93783C1.5835 2.77116 2.37516 1.97949 5.54183 1.97949" stroke="#324054" stroke-width="1.5" stroke-linecap="round" stroke-linejoin="round"/>
<path d="M17.4168 13.8545V5.93783C17.4168 2.77116 16.6252 1.97949 13.4585 1.97949" stroke="#324054" stroke-width="1.5" stroke-linecap="round" stroke-linejoin="round"/>
<path d="M7.91683 12.5956V15.2002C7.91683 16.7835 7.2835 17.4168 5.70016 17.4168H3.80016C2.21683 17.4168 1.5835 16.7835 1.5835 15.2002V12.5956C1.5835 11.0122 2.21683 10.3789 3.80016 10.3789H5.70016C7.2835 10.3789 7.91683 11.0122 7.91683 12.5956Z" stroke="#324054" stroke-width="1.5" stroke-linecap="round" stroke-linejoin="round"/>
<path d="M17.4168 12.5956V15.2002C17.4168 16.7835 16.7835 17.4168 15.2002 17.4168H13.3002C11.7168 17.4168 11.0835 16.7835 11.0835 15.2002V12.5956C11.0835 11.0122 11.7168 10.3789 13.3002 10.3789H15.2002C16.7835 10.3789 17.4168 11.0122 17.4168 12.5956Z" stroke="#324054" stroke-width="1.5" stroke-linecap="round" stroke-linejoin="round"/>
</svg>
