<svg width="25" height="25" viewBox="0 0 25 25" fill="none" xmlns="http://www.w3.org/2000/svg">
<path d="M4.00043 20.9208C4.83043 21.7508 6.17043 21.7508 7.00043 20.9208L20.0004 7.92084C20.8304 7.09084 20.8304 5.75084 20.0004 4.92084C19.1704 4.09084 17.8304 4.09084 17.0004 4.92084L4.00043 17.9208C3.17043 18.7508 3.17043 20.0908 4.00043 20.9208Z" stroke="#324054" stroke-width="1.5" stroke-linecap="round" stroke-linejoin="round"/>
<path d="M18.5098 9.41113L15.5098 6.41113" stroke="#324054" stroke-width="1.5" stroke-linecap="round" stroke-linejoin="round"/>
<path d="M9 2.8609L10.5 2.4209L10.06 3.9209L10.5 5.4209L9 4.9809L7.5 5.4209L7.94 3.9209L7.5 2.4209L9 2.8609Z" stroke="#324054" stroke-linecap="round" stroke-linejoin="round"/>
<path d="M5 8.8609L6.5 8.4209L6.06 9.9209L6.5 11.4209L5 10.9809L3.5 11.4209L3.94 9.9209L3.5 8.4209L5 8.8609Z" stroke="#324054" stroke-linecap="round" stroke-linejoin="round"/>
<path d="M20 13.8609L21.5 13.4209L21.06 14.9209L21.5 16.4209L20 15.9809L18.5 16.4209L18.94 14.9209L18.5 13.4209L20 13.8609Z" stroke="#324054" stroke-linecap="round" stroke-linejoin="round"/>
</svg>
