<svg width="20" height="21" viewBox="0 0 20 21" fill="none" xmlns="http://www.w3.org/2000/svg">
<path d="M4.16667 8.83301C3.25 8.83301 2.5 9.58301 2.5 10.4997C2.5 11.4163 3.25 12.1663 4.16667 12.1663C5.08333 12.1663 5.83333 11.4163 5.83333 10.4997C5.83333 9.58301 5.08333 8.83301 4.16667 8.83301Z" stroke="#71839B" stroke-width="1.5"/>
<path d="M15.8332 8.83301C14.9165 8.83301 14.1665 9.58301 14.1665 10.4997C14.1665 11.4163 14.9165 12.1663 15.8332 12.1663C16.7498 12.1663 17.4998 11.4163 17.4998 10.4997C17.4998 9.58301 16.7498 8.83301 15.8332 8.83301Z" stroke="#71839B" stroke-width="1.5"/>
<path d="M10.0002 8.83301C9.0835 8.83301 8.3335 9.58301 8.3335 10.4997C8.3335 11.4163 9.0835 12.1663 10.0002 12.1663C10.9168 12.1663 11.6668 11.4163 11.6668 10.4997C11.6668 9.58301 10.9168 8.83301 10.0002 8.83301Z" stroke="#71839B" stroke-width="1.5"/>
</svg>
