<svg width="29" height="29" viewBox="0 0 29 29" fill="none" xmlns="http://www.w3.org/2000/svg">
<path d="M6.33333 12.0874C5.05 12.0874 4 13.1374 4 14.4207C4 15.7041 5.05 16.7541 6.33333 16.7541C7.61667 16.7541 8.66667 15.7041 8.66667 14.4207C8.66667 13.1374 7.61667 12.0874 6.33333 12.0874Z" stroke="#324054" stroke-width="1.5"/>
<path d="M22.6668 12.0874C21.3835 12.0874 20.3335 13.1374 20.3335 14.4207C20.3335 15.7041 21.3835 16.7541 22.6668 16.7541C23.9502 16.7541 25.0002 15.7041 25.0002 14.4207C25.0002 13.1374 23.9502 12.0874 22.6668 12.0874Z" stroke="#324054" stroke-width="1.5"/>
<path d="M14.4998 12.0874C13.2165 12.0874 12.1665 13.1374 12.1665 14.4207C12.1665 15.7041 13.2165 16.7541 14.4998 16.7541C15.7832 16.7541 16.8332 15.7041 16.8332 14.4207C16.8332 13.1374 15.7832 12.0874 14.4998 12.0874Z" stroke="#324054" stroke-width="1.5"/>
</svg>
