<svg width="13" height="13" viewBox="0 0 13 13" fill="none" xmlns="http://www.w3.org/2000/svg">
<path d="M2.70931 5.4165C2.11348 5.4165 1.62598 5.904 1.62598 6.49984C1.62598 7.09567 2.11348 7.58317 2.70931 7.58317C3.30514 7.58317 3.79264 7.09567 3.79264 6.49984C3.79264 5.904 3.30514 5.4165 2.70931 5.4165Z" stroke="white"/>
<path d="M10.2913 5.4165C9.69551 5.4165 9.20801 5.904 9.20801 6.49984C9.20801 7.09567 9.69551 7.58317 10.2913 7.58317C10.8872 7.58317 11.3747 7.09567 11.3747 6.49984C11.3747 5.904 10.8872 5.4165 10.2913 5.4165Z" stroke="white"/>
<path d="M6.50228 5.4165C5.90645 5.4165 5.41895 5.904 5.41895 6.49984C5.41895 7.09567 5.90645 7.58317 6.50228 7.58317C7.09811 7.58317 7.58561 7.09567 7.58561 6.49984C7.58561 5.904 7.09811 5.4165 6.50228 5.4165Z" stroke="white"/>
</svg>
