<svg width="25" height="25" viewBox="0 0 25 25" fill="none" xmlns="http://www.w3.org/2000/svg">
<path d="M7.5 12.4209C3.5 12.4209 3.5 14.2109 3.5 16.4209V17.4209C3.5 20.1809 3.5 22.4209 8.5 22.4209H16.5C20.5 22.4209 21.5 20.1809 21.5 17.4209V16.4209C21.5 14.2109 21.5 12.4209 17.5 12.4209C16.5 12.4209 16.22 12.6309 15.7 13.0209L14.68 14.1009C13.5 15.3609 11.5 15.3609 10.31 14.1009L9.3 13.0209C8.78 12.6309 8.5 12.4209 7.5 12.4209Z" stroke="#324054" stroke-width="1.5" stroke-miterlimit="10" stroke-linecap="round" stroke-linejoin="round"/>
<path d="M19.5 12.4209V6.4209C19.5 4.2109 19.5 2.4209 15.5 2.4209H9.5C5.5 2.4209 5.5 4.2109 5.5 6.4209V12.4209" stroke="#324054" stroke-width="1.5" stroke-miterlimit="10" stroke-linecap="round" stroke-linejoin="round"/>
<path d="M11.0498 9.65088H14.3798" stroke="#324054" stroke-width="1.5" stroke-linecap="round" stroke-linejoin="round"/>
<path d="M10.2197 6.65088H15.2197" stroke="#324054" stroke-width="1.5" stroke-linecap="round" stroke-linejoin="round"/>
</svg>
