<svg width="20" height="21" viewBox="0 0 20 21" fill="none" xmlns="http://www.w3.org/2000/svg">
<path d="M10.0003 17.5832H5.83366C3.33366 17.5832 1.66699 16.3332 1.66699 13.4165V7.58317C1.66699 4.6665 3.33366 3.4165 5.83366 3.4165H14.167C16.667 3.4165 18.3337 4.6665 18.3337 7.58317V10.0832" stroke="#324054" stroke-width="1.5" stroke-miterlimit="10" stroke-linecap="round" stroke-linejoin="round"/>
<path d="M14.1663 8L11.558 10.0833C10.6997 10.7667 9.29134 10.7667 8.433 10.0833L5.83301 8" stroke="#324054" stroke-width="1.5" stroke-miterlimit="10" stroke-linecap="round" stroke-linejoin="round"/>
<path d="M16.0085 12.8086L13.0585 15.7586C12.9419 15.8752 12.8335 16.0919 12.8085 16.2502L12.6502 17.3752C12.5919 17.7836 12.8752 18.0669 13.2835 18.0086L14.4085 17.8502C14.5669 17.8252 14.7919 17.7169 14.9002 17.6002L17.8502 14.6502C18.3585 14.1419 18.6002 13.5502 17.8502 12.8002C17.1085 12.0586 16.5169 12.3002 16.0085 12.8086Z" stroke="#324054" stroke-width="1.5" stroke-miterlimit="10" stroke-linecap="round" stroke-linejoin="round"/>
<path d="M15.584 13.2334C15.834 14.1334 16.534 14.8334 17.434 15.0834" stroke="#324054" stroke-width="1.5" stroke-miterlimit="10" stroke-linecap="round" stroke-linejoin="round"/>
</svg>
