<svg width="29" height="29" viewBox="0 0 29 29" fill="none" xmlns="http://www.w3.org/2000/svg">
<path d="M14.5 17.9209C16.433 17.9209 18 16.3539 18 14.4209C18 12.4879 16.433 10.9209 14.5 10.9209C12.567 10.9209 11 12.4879 11 14.4209C11 16.3539 12.567 17.9209 14.5 17.9209Z" stroke="#324054" stroke-width="1.5" stroke-miterlimit="10" stroke-linecap="round" stroke-linejoin="round"/>
<path d="M2.8335 15.4474V13.3941C2.8335 12.1807 3.82516 11.1774 5.05016 11.1774C7.16183 11.1774 8.02516 9.68408 6.9635 7.85241C6.35683 6.80241 6.7185 5.43741 7.78016 4.83074L9.7985 3.67574C10.7202 3.12741 11.9102 3.45408 12.4585 4.37574L12.5868 4.59741C13.6368 6.42908 15.3635 6.42908 16.4252 4.59741L16.5535 4.37574C17.1018 3.45408 18.2918 3.12741 19.2135 3.67574L21.2318 4.83074C22.2935 5.43741 22.6552 6.80241 22.0485 7.85241C20.9868 9.68408 21.8502 11.1774 23.9618 11.1774C25.1752 11.1774 26.1785 12.1691 26.1785 13.3941V15.4474C26.1785 16.6607 25.1868 17.6641 23.9618 17.6641C21.8502 17.6641 20.9868 19.1574 22.0485 20.9891C22.6552 22.0507 22.2935 23.4041 21.2318 24.0107L19.2135 25.1657C18.2918 25.7141 17.1018 25.3874 16.5535 24.4657L16.4252 24.2441C15.3752 22.4124 13.6485 22.4124 12.5868 24.2441L12.4585 24.4657C11.9102 25.3874 10.7202 25.7141 9.7985 25.1657L7.78016 24.0107C6.7185 23.4041 6.35683 22.0391 6.9635 20.9891C8.02516 19.1574 7.16183 17.6641 5.05016 17.6641C3.82516 17.6641 2.8335 16.6607 2.8335 15.4474Z" stroke="#324054" stroke-width="1.5" stroke-miterlimit="10" stroke-linecap="round" stroke-linejoin="round"/>
</svg>
