<svg width="20" height="20" viewBox="0 0 20 20" fill="none" xmlns="http://www.w3.org/2000/svg">
<path d="M10.4915 10.8333L8.57484 12.7416C8.49673 12.8191 8.43474 12.9112 8.39243 13.0128C8.35012 13.1143 8.32834 13.2232 8.32834 13.3333C8.32834 13.4433 8.35012 13.5522 8.39243 13.6537C8.43474 13.7553 8.49673 13.8475 8.57484 13.9249C8.65231 14.003 8.74447 14.065 8.84602 14.1073C8.94757 14.1496 9.05649 14.1714 9.1665 14.1714C9.27651 14.1714 9.38544 14.1496 9.48698 14.1073C9.58853 14.065 9.6807 14.003 9.75817 13.9249L13.0915 10.5916C13.1674 10.5123 13.2268 10.4189 13.2665 10.3166C13.3499 10.1137 13.3499 9.88614 13.2665 9.68325C13.2268 9.58096 13.1674 9.48751 13.0915 9.40825L9.75817 6.07492C9.68047 5.99722 9.58823 5.93559 9.48671 5.89354C9.38519 5.85149 9.27639 5.82984 9.1665 5.82984C9.05662 5.82984 8.94781 5.85149 8.8463 5.89354C8.74478 5.93559 8.65254 5.99722 8.57484 6.07492C8.49714 6.15262 8.4355 6.24486 8.39345 6.34638C8.3514 6.4479 8.32976 6.5567 8.32976 6.66659C8.32976 6.77647 8.3514 6.88528 8.39345 6.98679C8.4355 7.08831 8.49714 7.18055 8.57484 7.25825L10.4915 9.16659H2.49984C2.27882 9.16659 2.06686 9.25438 1.91058 9.41067C1.7543 9.56695 1.6665 9.77891 1.6665 9.99992C1.6665 10.2209 1.7543 10.4329 1.91058 10.5892C2.06686 10.7455 2.27882 10.8333 2.49984 10.8333H10.4915ZM9.99984 1.66659C8.44241 1.65963 6.91421 2.08926 5.58856 2.90675C4.26291 3.72423 3.19288 4.89684 2.49984 6.29159C2.40038 6.4905 2.38402 6.72077 2.45434 6.93175C2.52467 7.14273 2.67592 7.31713 2.87484 7.41659C3.07375 7.51604 3.30402 7.53241 3.515 7.46208C3.72598 7.39176 3.90038 7.2405 3.99984 7.04159C4.52666 5.97769 5.32803 5.07377 6.32113 4.42324C7.31423 3.77272 8.46302 3.39918 9.6488 3.34125C10.8346 3.28331 12.0143 3.54307 13.0661 4.09368C14.1179 4.64429 15.0036 5.46578 15.6316 6.47325C16.2596 7.48072 16.6072 8.63763 16.6385 9.82441C16.6698 11.0112 16.3836 12.1848 15.8094 13.2239C15.2353 14.2631 14.3941 15.13 13.3728 15.7353C12.3514 16.3405 11.187 16.662 9.99984 16.6666C8.75724 16.672 7.5383 16.3269 6.48291 15.671C5.42753 15.015 4.57847 14.0748 4.03317 12.9583C3.93371 12.7593 3.75931 12.6081 3.54834 12.5378C3.33736 12.4674 3.10708 12.4838 2.90817 12.5833C2.70926 12.6827 2.558 12.8571 2.48768 13.0681C2.41735 13.2791 2.43371 13.5093 2.53317 13.7083C3.19386 15.0378 4.19777 16.1668 5.44106 16.9783C6.68435 17.7898 8.12188 18.2544 9.60494 18.3241C11.088 18.3937 12.5627 18.0659 13.8766 17.3745C15.1905 16.6831 16.2958 15.6532 17.0782 14.3914C17.8606 13.1296 18.2917 11.6817 18.3269 10.1974C18.3621 8.71314 18.0001 7.24641 17.2784 5.94895C16.5566 4.65148 15.5014 3.57039 14.2217 2.81751C12.9421 2.06462 11.4845 1.66728 9.99984 1.66659V1.66659Z" fill="#71839B"/>
</svg>
