<svg width="25" height="25" viewBox="0 0 25 25" fill="none" xmlns="http://www.w3.org/2000/svg">
<path d="M22.5 10.9209V15.9209C22.5 19.4209 20.5 20.9209 17.5 20.9209H7.5C4.5 20.9209 2.5 19.4209 2.5 15.9209V8.9209C2.5 5.4209 4.5 3.9209 7.5 3.9209H14.5" stroke="#324054" stroke-width="1.5" stroke-miterlimit="10" stroke-linecap="round" stroke-linejoin="round"/>
<path d="M7.5 9.4209L10.63 11.9209C11.66 12.7409 13.35 12.7409 14.38 11.9209L15.56 10.9809" stroke="#324054" stroke-width="1.5" stroke-miterlimit="10" stroke-linecap="round" stroke-linejoin="round"/>
<path d="M20 8.4209C21.3807 8.4209 22.5 7.30161 22.5 5.9209C22.5 4.54019 21.3807 3.4209 20 3.4209C18.6193 3.4209 17.5 4.54019 17.5 5.9209C17.5 7.30161 18.6193 8.4209 20 8.4209Z" stroke="#324054" stroke-width="1.5" stroke-miterlimit="10" stroke-linecap="round" stroke-linejoin="round"/>
</svg>
