<svg width="25" height="25" viewBox="0 0 25 25" fill="none" xmlns="http://www.w3.org/2000/svg">
<path d="M22.5 11.9209V15.9209C22.5 19.4209 20.5 20.9209 17.5 20.9209H7.5C4.5 20.9209 2.5 19.4209 2.5 15.9209V8.9209C2.5 5.4209 4.5 3.9209 7.5 3.9209H12.5" stroke="#324054" stroke-width="1.5" stroke-miterlimit="10" stroke-linecap="round" stroke-linejoin="round"/>
<path d="M7.5 9.4209L10.63 11.9209C11.66 12.7409 13.35 12.7409 14.38 11.9209" stroke="#324054" stroke-width="1.5" stroke-miterlimit="10" stroke-linecap="round" stroke-linejoin="round"/>
<path d="M19.9802 3.24084L20.2602 3.81083C20.4002 4.09083 20.7502 4.35084 21.0602 4.41084L21.4402 4.47084C22.5802 4.66084 22.8502 5.50084 22.0302 6.33084L21.6802 6.68083C21.4502 6.92083 21.3202 7.38083 21.3902 7.70083L21.4402 7.91084C21.7502 9.29084 21.0202 9.82083 19.8202 9.10083L19.5602 8.95083C19.2502 8.77083 18.7502 8.77083 18.4402 8.95083L18.1802 9.10083C16.9702 9.83083 16.2402 9.29084 16.5602 7.91084L16.6102 7.70083C16.6802 7.38083 16.5502 6.92083 16.3202 6.68083L15.9702 6.33084C15.1502 5.50084 15.4202 4.66084 16.5602 4.47084L16.9402 4.41084C17.2402 4.36084 17.6002 4.09083 17.7402 3.81083L18.0202 3.24084C18.5602 2.15084 19.4402 2.15084 19.9802 3.24084Z" stroke="#324054" stroke-width="1.5" stroke-linecap="round" stroke-linejoin="round"/>
</svg>
