<svg width="25" height="25" viewBox="0 0 25 25" fill="none" xmlns="http://www.w3.org/2000/svg">
<path d="M14.2299 3.93104L15.9899 7.45104C16.2299 7.94104 16.8699 8.41104 17.4099 8.50104L20.5999 9.03103C22.6399 9.37103 23.1199 10.851 21.6499 12.311L19.1699 14.791C18.7499 15.211 18.5199 16.021 18.6499 16.601L19.3599 19.671C19.9199 22.101 18.6299 23.041 16.4799 21.771L13.4899 20.001C12.9499 19.681 12.0599 19.681 11.5099 20.001L8.51991 21.771C6.37991 23.041 5.07991 22.091 5.63991 19.671L6.34991 16.601C6.47991 16.021 6.24991 15.211 5.82991 14.791L3.34991 12.311C1.88991 10.851 2.35991 9.37103 4.39991 9.03103L7.58991 8.50104C8.11991 8.41104 8.75991 7.94104 8.99991 7.45104L10.7599 3.93104C11.7199 2.02104 13.2799 2.02104 14.2299 3.93104Z" stroke="#324054" stroke-width="1.5" stroke-linecap="round" stroke-linejoin="round"/>
</svg>
