<svg width="16" height="16" viewBox="0 0 16 16" fill="none" xmlns="http://www.w3.org/2000/svg">
<path d="M1.31982 8.66682H3.84649C4.35316 8.66682 4.81316 8.95349 5.03982 9.40682L5.63316 10.6002C5.99982 11.3335 6.66649 11.3335 6.82649 11.3335H9.17983C9.68649 11.3335 10.1465 11.0468 10.3732 10.5935L10.9665 9.40016C11.1932 8.94682 11.6532 8.66016 12.1598 8.66016H14.6532" stroke="#71839B" stroke-width="1.5" stroke-linecap="round" stroke-linejoin="round"/>
<path d="M12.6665 5.3335C13.7711 5.3335 14.6665 4.43807 14.6665 3.3335C14.6665 2.22893 13.7711 1.3335 12.6665 1.3335C11.5619 1.3335 10.6665 2.22893 10.6665 3.3335C10.6665 4.43807 11.5619 5.3335 12.6665 5.3335Z" stroke="#71839B" stroke-width="1.5" stroke-linecap="round" stroke-linejoin="round"/>
<path d="M9.3335 1.3335H6.00016C2.66683 1.3335 1.3335 2.66683 1.3335 6.00016V10.0002C1.3335 13.3335 2.66683 14.6668 6.00016 14.6668H10.0002C13.3335 14.6668 14.6668 13.3335 14.6668 10.0002V6.66683" stroke="#71839B" stroke-width="1.5" stroke-linecap="round" stroke-linejoin="round"/>
</svg>
