<svg width="21" height="21" viewBox="0 0 21 21" fill="none" xmlns="http://www.w3.org/2000/svg">
<path d="M18.8332 9.24984V13.4165C18.8332 16.3332 17.1665 17.5832 14.6665 17.5832H6.33317C3.83317 17.5832 2.1665 16.3332 2.1665 13.4165V7.58317C2.1665 4.6665 3.83317 3.4165 6.33317 3.4165H12.1665" stroke="#324054" stroke-width="1.5" stroke-miterlimit="10" stroke-linecap="round" stroke-linejoin="round"/>
<path d="M6.3335 8L8.94183 10.0833C9.80017 10.7667 11.2085 10.7667 12.0668 10.0833L13.0502 9.3" stroke="#324054" stroke-width="1.5" stroke-miterlimit="10" stroke-linecap="round" stroke-linejoin="round"/>
<path d="M16.7498 7.16667C17.9004 7.16667 18.8332 6.23393 18.8332 5.08333C18.8332 3.93274 17.9004 3 16.7498 3C15.5992 3 14.6665 3.93274 14.6665 5.08333C14.6665 6.23393 15.5992 7.16667 16.7498 7.16667Z" stroke="#324054" stroke-width="1.5" stroke-miterlimit="10" stroke-linecap="round" stroke-linejoin="round"/>
</svg>
