<svg width="25" height="25" viewBox="0 0 25 25" fill="none" xmlns="http://www.w3.org/2000/svg">
<path fill-rule="evenodd" clip-rule="evenodd" d="M7.72662 17.1939C7.43373 16.901 7.43373 16.4261 7.72662 16.1332L16.2119 7.64796C16.5048 7.35507 16.9797 7.35507 17.2726 7.64796C17.5655 7.94086 17.5655 8.41573 17.2726 8.70862L8.78728 17.1939C8.49439 17.4868 8.01951 17.4868 7.72662 17.1939Z" fill="#324054"/>
<path fill-rule="evenodd" clip-rule="evenodd" d="M7.72662 7.64789C8.01951 7.355 8.49439 7.355 8.78728 7.64789L17.2726 16.1332C17.5655 16.4261 17.5655 16.9009 17.2726 17.1938C16.9797 17.4867 16.5048 17.4867 16.2119 17.1938L7.72662 8.70855C7.43373 8.41566 7.43373 7.94079 7.72662 7.64789Z" fill="#324054"/>
</svg>
