<svg width="210" height="51" viewBox="0 0 210 51" fill="none" xmlns="http://www.w3.org/2000/svg">
<path d="M172.179 49.7929C171.716 49.7929 171.346 49.6309 171.068 49.307C170.837 48.983 170.767 48.5895 170.86 48.1267L177.803 15.3573C177.895 14.8945 178.127 14.5011 178.497 14.1771C178.913 13.8531 179.353 13.6911 179.816 13.6911H185.509C185.972 13.6911 186.319 13.8531 186.55 14.1771C186.782 14.5011 186.851 14.8945 186.759 15.3573L186.134 18.2038C187.615 16.7227 189.351 15.4962 191.341 14.5242C193.377 13.506 195.668 12.9968 198.214 12.9968C201.361 12.9968 203.884 13.6448 205.782 14.9408C207.679 16.1905 208.929 17.9724 209.531 20.2866C210.179 22.6008 210.155 25.3779 209.461 28.6178L205.296 48.1267C205.203 48.5895 204.972 48.983 204.601 49.307C204.231 49.6309 203.791 49.7929 203.282 49.7929H197.173C196.71 49.7929 196.34 49.6309 196.062 49.307C195.83 48.983 195.761 48.5895 195.854 48.1267L199.88 29.0344C200.482 26.211 200.413 24.0819 199.672 22.6471C198.978 21.166 197.288 20.4255 194.604 20.4255C191.966 20.4255 189.721 21.1892 187.87 22.7166C186.064 24.2439 184.861 26.3499 184.259 29.0344L180.233 48.1267C180.14 48.5895 179.909 48.983 179.538 49.307C179.168 49.6309 178.751 49.7929 178.289 49.7929H172.179Z" fill="white"/>
<path d="M148.448 50.4872C144.93 50.4872 141.991 49.8392 139.631 48.5433C137.317 47.2473 135.65 45.4191 134.632 43.0586C133.66 40.6981 133.429 37.9441 133.938 34.7968C134.077 33.9637 134.262 32.9454 134.493 31.742C134.771 30.5386 135.025 29.5204 135.257 28.6872C136.09 25.4936 137.363 22.7397 139.075 20.4255C140.834 18.065 143.056 16.2367 145.74 14.9408C148.471 13.6448 151.688 12.9968 155.391 12.9968C158.908 12.9968 161.824 13.6448 164.138 14.9408C166.499 16.2367 168.188 18.065 169.207 20.4255C170.225 22.7397 170.479 25.4936 169.97 28.6872C169.785 29.5204 169.577 30.5386 169.345 31.742C169.114 32.9454 168.883 33.9637 168.651 34.7968C167.818 37.9441 166.545 40.6981 164.833 43.0586C163.166 45.4191 160.968 47.2473 158.237 48.5433C155.553 49.8392 152.29 50.4872 148.448 50.4872ZM149.142 43.614C151.642 43.614 153.748 42.8503 155.46 41.3229C157.219 39.7492 158.492 37.4581 159.279 34.4497C159.464 33.7554 159.672 32.8528 159.903 31.742C160.135 30.6312 160.32 29.7286 160.459 29.0344C160.968 26.0722 160.76 23.8042 159.834 22.2306C158.908 20.6569 157.196 19.8701 154.696 19.8701C152.243 19.8701 150.137 20.6569 148.379 22.2306C146.62 23.8042 145.37 26.0722 144.63 29.0344C144.444 29.7286 144.213 30.6312 143.935 31.742C143.704 32.8528 143.542 33.7554 143.449 34.4497C142.94 37.4581 143.125 39.7492 144.005 41.3229C144.93 42.8503 146.643 43.614 149.142 43.614Z" fill="white"/>
<path d="M110.588 50.4872C107.487 50.4872 104.757 49.8624 102.396 48.6127C100.082 47.363 98.3694 45.5579 97.2585 43.1974C96.1477 40.7906 95.8931 37.8978 96.4948 34.5191C96.6337 33.8248 96.8188 32.9223 97.0503 31.8114C97.2817 30.6543 97.49 29.7055 97.6751 28.965C98.9248 23.92 101.239 20.0089 104.618 17.2319C107.997 14.4085 112.301 12.9968 117.531 12.9968C120.447 12.9968 122.877 13.4134 124.821 14.2465C126.811 15.0796 128.362 16.1442 129.472 17.4401C130.63 18.7361 131.416 20.0783 131.833 21.4669C132.296 22.8554 132.458 24.1051 132.319 25.2159C132.273 25.725 132.064 26.1416 131.694 26.4656C131.37 26.7433 130.977 26.8822 130.514 26.8822H124.196C123.733 26.8822 123.363 26.7664 123.085 26.535C122.854 26.3036 122.715 25.9565 122.669 25.4936C122.669 23.6422 122.16 22.3 121.141 21.4669C120.169 20.6338 118.758 20.2172 116.906 20.2172C114.638 20.2172 112.602 20.9577 110.797 22.4388C109.038 23.8737 107.765 26.1647 106.978 29.3121C106.793 30.1452 106.608 31.0015 106.423 31.8809C106.238 32.7603 106.076 33.524 105.937 34.1719C105.428 37.3656 105.659 39.6798 106.631 41.1146C107.603 42.5494 109.223 43.2668 111.491 43.2668C113.296 43.2668 114.916 42.8966 116.351 42.156C117.786 41.3692 118.989 40.0501 119.961 38.1987C120.239 37.6896 120.516 37.3424 120.794 37.1573C121.118 36.9259 121.512 36.8102 121.974 36.8102H128.223C128.686 36.8102 129.033 36.9722 129.264 37.2961C129.542 37.5739 129.611 37.9673 129.472 38.4764C129.149 39.4947 128.547 40.6981 127.667 42.0866C126.834 43.4288 125.677 44.7479 124.196 46.0439C122.715 47.3399 120.84 48.4044 118.573 49.2375C116.351 50.0706 113.69 50.4872 110.588 50.4872Z" fill="white"/>
<path d="M80.1351 49.7929C79.6723 49.7929 79.302 49.6309 79.0243 49.3069C78.7929 48.9829 78.7235 48.5895 78.816 48.1267L88.6052 2.16624C88.6978 1.70339 88.9292 1.30998 89.2995 0.985988C89.6697 0.661996 90.0863 0.5 90.5491 0.5H96.3116C96.8207 0.5 97.191 0.661996 97.4224 0.985988C97.7001 1.30998 97.7927 1.70339 97.7001 2.16624L87.9109 48.1267C87.8184 48.5895 87.5869 48.9829 87.2167 49.3069C86.8464 49.6309 86.4067 49.7929 85.8976 49.7929H80.1351Z" fill="white"/>
<path d="M53.3747 50.4872C50.9679 50.4872 48.9314 50.0938 47.2652 49.307C45.5989 48.4738 44.2798 47.3167 43.3078 45.8356C42.3821 44.3545 41.7805 42.6189 41.5027 40.6286C41.225 38.5921 41.2713 36.3705 41.6416 33.9637C41.8267 33.1305 41.9887 32.39 42.1276 31.742C42.2664 31.0478 42.4284 30.2841 42.6136 29.4509C43.2153 27.1367 44.0021 24.9845 44.9741 22.9943C45.9923 21.004 47.2189 19.2684 48.6537 17.7873C50.1348 16.2599 51.8473 15.0796 53.7913 14.2465C55.7815 13.4134 58.0494 12.9968 60.5951 12.9968C63.4647 12.9968 65.6401 13.4597 67.1212 14.3854C68.6486 15.2648 69.8288 16.3524 70.6619 17.6484L71.1479 15.3573C71.2405 14.8945 71.4719 14.5011 71.8422 14.1771C72.2125 13.8531 72.629 13.6911 73.0919 13.6911H78.5766C79.0394 13.6911 79.4097 13.8531 79.6874 14.1771C79.9651 14.5011 80.0577 14.8945 79.9651 15.3573L72.953 48.1267C72.8604 48.5895 72.629 48.983 72.2587 49.307C71.8885 49.6309 71.4719 49.7929 71.0091 49.7929H65.5244C65.0152 49.7929 64.6218 49.6309 64.3441 49.307C64.1127 48.983 64.0433 48.5895 64.1358 48.1267L64.6912 45.5579C63.3027 46.9927 61.7753 48.173 60.1091 49.0987C58.4428 50.0244 56.1981 50.4872 53.3747 50.4872ZM56.4989 43.0586C58.4428 43.0586 60.1091 42.6189 61.4976 41.7395C62.8861 40.86 63.997 39.7492 64.8301 38.407C65.7095 37.0184 66.3343 35.6068 66.7046 34.1719C66.936 33.3388 67.1443 32.4594 67.3295 31.5337C67.5146 30.5618 67.6766 29.6592 67.8154 28.8261C68.0931 27.4376 68.0931 26.1185 67.8154 24.8688C67.584 23.5728 67.0055 22.5083 66.0798 21.6752C65.1541 20.842 63.7424 20.4255 61.8447 20.4255C60.0397 20.4255 58.4891 20.8652 57.1932 21.7446C55.9435 22.5777 54.9021 23.6885 54.069 25.0771C53.2358 26.4656 52.5647 27.993 52.0556 29.6592C51.8705 30.3535 51.7085 31.0478 51.5696 31.742C51.4308 32.4363 51.315 33.1306 51.2225 33.8248C50.9911 35.4911 50.9216 37.0184 51.0142 38.407C51.153 39.7955 51.639 40.9295 52.4722 41.8089C53.3516 42.642 54.6938 43.0586 56.4989 43.0586Z" fill="white"/>
<path d="M1.41638 49.2171C0.911468 49.2171 0.521307 49.0564 0.2459 48.7351C0.0163933 48.4138 -0.0524586 48.0236 0.039344 47.5646L9.60976 2.74205C9.70156 2.23714 9.93106 1.82402 10.2983 1.50272C10.6655 1.18141 11.1015 1.02075 11.6065 1.02075H43.571C44.0759 1.02075 44.4431 1.18141 44.6726 1.50272C44.9021 1.82402 44.971 2.23714 44.8792 2.74205L43.8464 7.90882C43.7546 8.41373 43.5251 8.82684 43.1579 9.14815C42.7907 9.42356 42.3546 9.56126 41.8497 9.56126H20.5225C20.0243 9.56126 19.5441 9.74716 19.1758 10.0826L14.8659 14.0077C14.1772 14.6349 14.0127 15.6546 14.4691 16.4665L16.9779 20.929C17.332 21.5589 17.9985 21.9488 18.7213 21.9488H37.6497C38.1546 21.9488 38.5218 22.1095 38.7514 22.4308C38.9809 22.7521 39.0497 23.1652 38.9579 23.6701L37.994 28.8369C37.9022 29.2959 37.6497 29.6861 37.2366 30.0074C36.8694 30.3287 36.4333 30.4894 35.9284 30.4894H15.7486C14.8196 30.4894 14.0129 31.129 13.8012 32.0336L10.1663 47.5646C10.0745 48.0236 9.84501 48.4138 9.4778 48.7351C9.11059 49.0564 8.67453 49.2171 8.16961 49.2171H1.41638Z" fill="white"/>
</svg>
