<svg width="19" height="19" viewBox="0 0 19 19" fill="none" xmlns="http://www.w3.org/2000/svg">
<path d="M4.02818 11.8958L7.42568 15.2933C8.82068 16.6883 11.0857 16.6883 12.4882 15.2933L15.7807 12.0008C17.1757 10.6058 17.1757 8.34075 15.7807 6.93825L12.3757 3.54825C11.6632 2.83575 10.6807 2.45325 9.67568 2.50575L5.92568 2.68575C4.42568 2.75325 3.23318 3.94575 3.15818 5.43825L2.97818 9.18825C2.93318 10.2008 3.31568 11.1833 4.02818 11.8958Z" stroke="#2D68FE" stroke-width="1.1" stroke-linecap="round" stroke-linejoin="round"/>
<path d="M8.02539 9.4209C9.06092 9.4209 9.90039 8.58143 9.90039 7.5459C9.90039 6.51036 9.06092 5.6709 8.02539 5.6709C6.98986 5.6709 6.15039 6.51036 6.15039 7.5459C6.15039 8.58143 6.98986 9.4209 8.02539 9.4209Z" stroke="#2D68FE" stroke-width="1.1" stroke-linecap="round"/>
</svg>
