<svg width="15" height="18" viewBox="0 0 15 18" fill="none" xmlns="http://www.w3.org/2000/svg">
<path d="M13.9001 5V13C13.9001 16.2 13.1001 17 9.9001 17H5.1001C1.9001 17 1.1001 16.2 1.1001 13V5C1.1001 1.8 1.9001 1 5.1001 1H9.9001C13.1001 1 13.9001 1.8 13.9001 5Z" stroke="#2D68FE" stroke-width="1.1" stroke-linecap="round" stroke-linejoin="round"/>
<path d="M9.0999 3.80005H5.8999" stroke="#2D68FE" stroke-width="1.1" stroke-linecap="round" stroke-linejoin="round"/>
<path d="M7.50025 14.68C8.18509 14.68 8.74025 14.1248 8.74025 13.44C8.74025 12.7551 8.18509 12.2 7.50025 12.2C6.81542 12.2 6.26025 12.7551 6.26025 13.44C6.26025 14.1248 6.81542 14.68 7.50025 14.68Z" stroke="#2D68FE" stroke-width="1.1" stroke-linecap="round" stroke-linejoin="round"/>
</svg>
